<mxfile host="app.diagrams.net" agent="Mozilla/5.0 (Windows NT 10.0; Win64; x64) AppleWebKit/537.36 (KHTML, like Gecko) Chrome/129.0.0.0 Safari/537.36" version="24.7.17">
  <diagram name="Page-1" id="03018318-947c-dd8e-b7a3-06fadd420f32">
    <mxGraphModel dx="794" dy="539" grid="1" gridSize="10" guides="1" tooltips="1" connect="1" arrows="1" fold="1" page="1" pageScale="1" pageWidth="1100" pageHeight="850" background="#ffffff" math="0" shadow="0">
      <root>
        <mxCell id="0" />
        <mxCell id="1" parent="0" />
        <mxCell id="Up7u5XpW_qCa6S5sLstG-9" value="" style="rounded=0;whiteSpace=wrap;html=1;" parent="1" vertex="1">
          <mxGeometry x="20" y="20.91" width="1060" height="569.09" as="geometry" />
        </mxCell>
        <mxCell id="677b7b8949515195-4" value="Topic 1" style="text;html=1;points=[];align=left;verticalAlign=top;spacingTop=-4;fontSize=14;fontFamily=Verdana" parent="1" vertex="1">
          <mxGeometry x="780" y="40" width="60" height="20" as="geometry" />
        </mxCell>
        <mxCell id="677b7b8949515195-5" value="Topic 2" style="text;html=1;points=[];align=left;verticalAlign=top;spacingTop=-4;fontSize=14;fontFamily=Verdana" parent="1" vertex="1">
          <mxGeometry x="860" y="40" width="60" height="20" as="geometry" />
        </mxCell>
        <mxCell id="677b7b8949515195-6" value="Topic 3" style="text;html=1;points=[];align=left;verticalAlign=top;spacingTop=-4;fontSize=14;fontFamily=Verdana" parent="1" vertex="1">
          <mxGeometry x="930" y="40" width="60" height="20" as="geometry" />
        </mxCell>
        <mxCell id="677b7b8949515195-7" value="Topic 4" style="text;html=1;points=[];align=left;verticalAlign=top;spacingTop=-4;fontSize=14;fontFamily=Verdana" parent="1" vertex="1">
          <mxGeometry x="1000" y="40" width="60" height="20" as="geometry" />
        </mxCell>
        <mxCell id="677b7b8949515195-15" value="&lt;div style=&quot;&quot;&gt;&lt;span style=&quot;color: rgb(23, 43, 77); font-family: -apple-system, BlinkMacSystemFont, &amp;quot;Segoe UI&amp;quot;, Roboto, Oxygen, Ubuntu, &amp;quot;Fira Sans&amp;quot;, &amp;quot;Droid Sans&amp;quot;, &amp;quot;Helvetica Neue&amp;quot;, sans-serif; font-size: 28px; letter-spacing: -0.28px; white-space-collapse: preserve; background-color: rgb(255, 255, 255);&quot;&gt;Version 1.2.7 - RC1&lt;/span&gt;&lt;br&gt;&lt;/div&gt;&lt;div style=&quot;&quot;&gt;&lt;div style=&quot;margin: 3px 0px 0px; padding: 0px; color: rgb(68, 84, 111); font-family: -apple-system, BlinkMacSystemFont, &amp;quot;Segoe UI&amp;quot;, Roboto, Oxygen, Ubuntu, &amp;quot;Fira Sans&amp;quot;, &amp;quot;Droid Sans&amp;quot;, &amp;quot;Helvetica Neue&amp;quot;, sans-serif; background-color: rgb(255, 255, 255);&quot; class=&quot;_19pk1l7b _2hwxidpf _otyridpf _18u0idpf&quot;&gt;&lt;ul style=&quot;margin-right: ; margin-bottom: ; margin-left: ; padding: var(--ds-space-0, 0px); display: flex; isolation: isolate; line-height: 1; margin-inline-end: 8px; list-style-type: none !important; margin-top: 0px;&quot; class=&quot;cc-utndrw&quot; aria-label=&quot;avatar group&quot;&gt;&lt;li style=&quot;margin: var(--ds-space-0, 0px); margin-inline-end: -8px;&quot; class=&quot;cc-x63byp&quot;&gt;&lt;div style=&quot;margin: 0px; padding: 0px;&quot; role=&quot;presentation&quot;&gt;&lt;span data-testid=&quot;profileCardTrigger&quot;&gt;&lt;span style=&quot;box-sizing: border-box; appearance: none; background-color: var(--ds-background-neutral-subtle,transparent); padding: var(--ds-space-0,0px); cursor: pointer; border: 0px;&quot; data-testid=&quot;avatarWrapperTestId&quot; aria-label=&quot;More information about Thang.TranVinh&quot; aria-expanded=&quot;false&quot; aria-haspopup=&quot;true&quot; class=&quot;cc-1og32gs&quot;&gt;&lt;div style=&quot;margin: 0px; padding: 0px; display: inline-block; position: relative; outline: 0px; z-index: 4;&quot; aria-labelledby=&quot;366&quot; role=&quot;img&quot;&gt;&lt;span style=&quot;height: 32px; width: 32px; -webkit-box-align: stretch; align-items: stretch; background-color: var(--ds-surface-overlay, #FFFFFF); border-radius: 50%; box-sizing: content-box; cursor: inherit; display: flex; flex-direction: column; -webkit-box-pack: center; justify-content: center; outline: none; overflow: hidden; transform: translateZ(0px); transition: transform 200ms, opacity 200ms; box-shadow: 0 0 0 2px var(--ds-surface-overlay, #FFFFFF); border: none; margin: var(--ds-space-025, 2px); padding: var(--ds-space-0, 0px); position: relative;&quot; class=&quot;cc-d8vs62&quot;&gt;&lt;img style=&quot;margin: 0px; padding: 0px; border: 0px; flex: 1 1 100%; width: 32px; height: 32px; display: flex; border-radius: 50%;&quot; class=&quot;cc-13ep12v&quot; data-vc=&quot;avatar-image&quot; aria-hidden=&quot;true&quot; alt=&quot;&quot; src=&quot;https://oworx-publiccloud.atlassian.net/wiki/aa-avatar/5e3a8f1a494d780ca21c49ac&quot;&gt;&lt;/span&gt;&lt;/div&gt;&lt;/span&gt;&lt;/span&gt;&lt;/div&gt;&lt;/li&gt;&lt;/ul&gt;&lt;/div&gt;&lt;div style=&quot;margin: 0 0 0 var(--ds-space-100,8px); padding: 0px; width: 716px; color: rgb(68, 84, 111); font-family: -apple-system, BlinkMacSystemFont, &amp;quot;Segoe UI&amp;quot;, Roboto, Oxygen, Ubuntu, &amp;quot;Fira Sans&amp;quot;, &amp;quot;Droid Sans&amp;quot;, &amp;quot;Helvetica Neue&amp;quot;, sans-serif; background-color: rgb(255, 255, 255);&quot; class=&quot;_18s8171m _1bsb1osq _59381r31 _yha2glyw _1nmznqa1 _43ds6iba _p03cndjz _oavvndjz _oxk4ndjz _1cayndjz _7hxb1r31 _9m7f1r31 _rfqo1r31 _qfs11r31 _15zv8stv _w7sw8stv _1bgk8stv _s41o8stv _1xvinqa1 _15a9nqa1 _1t0pnqa1 _1k6pnqa1&quot;&gt;&lt;div style=&quot;margin: 0px; padding: 0px; align-items: normal; justify-content: normal;&quot; class=&quot;_m31q1r31 _5xsmglyw _u1kenqa1 _7qx06iba _p03cndjz _oavvndjz _oxk4ndjz _1cayndjz _7hxb1r31 _9m7f1r31 _rfqo1r31 _qfs11r31 _15zv8stv _w7sw8stv _1bgk8stv _s41o8stv _1xvinqa1 _15a9nqa1 _1t0pnqa1 _1k6pnqa1 _1e0c1ule _1bah4jg8 _4cvr4jg8&quot;&gt;&lt;div style=&quot;margin: 0px; padding: 0px; display: flex;&quot; class=&quot;_1e0c1txw&quot;&gt;&lt;span style=&quot;margin-right: var(--ds-space-025,2px);&quot; class=&quot;_2hwxv77o _15tynkob&quot;&gt;&lt;span style=&quot;vertical-align: middle;&quot;&gt;Owned by&amp;nbsp;&lt;a aria-label=&quot;Thang.TranVinh profile&quot; rel=&quot;noreferrer&quot; target=&quot;_blank&quot; href=&quot;https://oworx-publiccloud.atlassian.net/wiki/people/5e3a8f1a494d780ca21c49ac?ref=confluence&amp;amp;src=profilecard&quot;&gt;Thang.TranVinh&lt;/a&gt;&lt;/span&gt;&lt;/span&gt;&lt;div style=&quot;margin: 0px; padding: 0px;&quot; role=&quot;presentation&quot;&gt;&lt;button style=&quot;font-family: inherit; border-radius: var(--ds-border-radius,3px); text-wrap: nowrap; background: var(--ds-background-neutral-subtle,none); cursor: pointer; vertical-align: middle; border-width: 0px; justify-content: center; align-items: baseline; width: auto; max-width: 100%; height: 1.71429em; padding: 0px 2px; font-style: normal; font-weight: 500; line-height: 1.71429em; transition: background 0.1s ease-out, box-shadow 0.15s cubic-bezier(0.47, 0.03, 0.49, 1.38); display: inline-flex; position: relative;&quot; type=&quot;button&quot; tabindex=&quot;0&quot; data-testid=&quot;page-owner-byline-popup-trigger&quot; class=&quot;cc-1wtrhhd&quot; aria-haspopup=&quot;true&quot; aria-expanded=&quot;false&quot;&gt;&lt;span style=&quot;opacity: 1; user-select: none; -webkit-box-flex: 0; flex-grow: 0; flex-shrink: 0; align-self: center; margin: 0px 2px; font-size: 0px; line-height: 0; transition: opacity 0.3s; display: flex;&quot; class=&quot;cc-bwxjrz&quot;&gt;&lt;span style=&quot;flex-shrink: 0; width: 16px; height: 16px; line-height: 1; display: inline-block; --icon-primary-color: var(--ds-text-subtle, #42526E); --icon-secondary-color: var(--ds-surface, #FFFFFF);&quot; class=&quot;cc-1wits42&quot; aria-label=&quot;Manage page ownership&quot; role=&quot;img&quot; data-vc=&quot;icon-undefined&quot;&gt;&lt;svg role=&quot;presentation&quot; viewBox=&quot;0 0 24 24&quot; height=&quot;24&quot; width=&quot;24&quot;&gt;&lt;g fill-rule=&quot;evenodd&quot; fill=&quot;currentcolor&quot;&gt;&lt;circle r=&quot;2&quot; cy=&quot;12&quot; cx=&quot;5&quot;&gt;&lt;/circle&gt;&lt;circle r=&quot;2&quot; cy=&quot;12&quot; cx=&quot;12&quot;&gt;&lt;/circle&gt;&lt;circle r=&quot;2&quot; cy=&quot;12&quot; cx=&quot;19&quot;&gt;&lt;/circle&gt;&lt;/g&gt;&lt;/svg&gt;&lt;/span&gt;&lt;/span&gt;&lt;/button&gt;&lt;/div&gt;&lt;/div&gt;&lt;/div&gt;&lt;div style=&quot;margin: 0px; padding: 0px;&quot;&gt;&lt;div style=&quot;margin: 0px; padding: 0px; display: inline-block;&quot; class=&quot;_1e0c1o8l _299m1dk0&quot; data-testid=&quot;page-last-modified&quot;&gt;Last updated:&amp;nbsp;&lt;a style=&quot;text-decoration-line: none; text-decoration-style: solid; text-decoration-color: currentcolor;&quot; href=&quot;https://oworx-publiccloud.atlassian.net/wiki/pages/diffpagesbyversion.action?pageId=1527283747&amp;amp;selectedPageVersions=2&amp;amp;selectedPageVersions=3&quot;&gt;Sep 04, 2024&lt;/a&gt;&lt;/div&gt;&lt;div style=&quot;margin: 0px; padding: 0px; display: inline-flex;&quot; data-ssr-placeholder-replace=&quot;If625:4y5Pz:qz-Pe:RPrst-0&quot; data-vc=&quot;read-time&quot;&gt;&lt;span style=&quot;margin-right: var(--ds-space-050,4px); padding-left: var(--ds-space-075,6px); color: var(--ds-text-subtle,#42526E);&quot; class=&quot;css-146smlm evl2q7h0&quot;&gt;&lt;span role=&quot;presentation&quot;&gt;1 min read&lt;/span&gt;&lt;/span&gt;&lt;/div&gt;&lt;span data-ssr-placeholder-replace=&quot;Z8mis:4y5Pz:qz-Pe:RPrst-0&quot; data-vc=&quot;analytics-byline-wrapper&quot; aria-haspopup=&quot;true&quot;&gt;&lt;span style=&quot;display: inline-block; color: var(--ds-text-subtle, #6B778C); margin-right: var(--ds-space-100, 8px); padding-left: var(--ds-space-050, 4px);&quot; class=&quot;cc-ipr2q9&quot; data-testid=&quot;analytics-byline&quot;&gt;&lt;button style=&quot;font-family: inherit; -webkit-box-align: baseline; align-items: baseline; border-width: 0px; border-radius: var(--ds-border-radius, 3px); display: inline-flex; font-style: normal; font-weight: unset; max-width: 100%; position: relative; transition: background 0.1s ease-out, box-shadow 0.15s cubic-bezier(0.47, 0.03, 0.49, 1.38); text-wrap: nowrap; background: var(--ds-background-neutral-subtle, none); cursor: pointer; height: auto; line-height: inherit; padding: 0px; vertical-align: baseline; width: auto; -webkit-box-pack: center; justify-content: center;&quot; type=&quot;button&quot; tabindex=&quot;0&quot; class=&quot;cc-1au32bq&quot;&gt;&lt;span style=&quot;text-align: left; opacity: 1; text-overflow: ellipsis; -webkit-box-flex: 1; flex-grow: 1; flex-shrink: 1; margin: 0px; transition: opacity 0.3s; overflow: hidden;&quot; class=&quot;cc-1gd7hga&quot;&gt;&lt;span style=&quot;margin-right: var(--ds-space-050, 4px); vertical-align: middle;&quot; class=&quot;cc-1miufoc&quot;&gt;&lt;span style=&quot;flex-shrink: 0; width: 16px; height: 16px; line-height: 1; display: inline-block; --icon-primary-color: currentColor; --icon-secondary-color: var(--ds-surface, #FFFFFF);&quot; class=&quot;cc-1wits42&quot; aria-hidden=&quot;true&quot; data-vc=&quot;icon-undefined&quot;&gt;&lt;svg role=&quot;presentation&quot; viewBox=&quot;0 0 24 24&quot; height=&quot;24&quot; width=&quot;24&quot;&gt;&lt;g fill=&quot;currentcolor&quot;&gt;&lt;path d=&quot;M21 17H5c-.55 0-1-.45-1-1.01V6a1 1 0 1 0-2 0v9.99A3 3 0 0 0 5 19h16a1 1 0 0 0 0-2m-3-8v3a1 1 0 0 0 2 0V8a1 1 0 0 0-1-1h-4a1 1 0 0 0 0 2z&quot;&gt;&lt;/path&gt;&lt;path d=&quot;M13.293 13.707a1 1 0 0 0 1.414 0l4-4a1 1 0 1 0-1.414-1.414L14 11.586l-2.293-2.293a1 1 0 0 0-1.414 0l-4 4a1 1 0 0 0 1.414 1.414L11 11.414z&quot;&gt;&lt;/path&gt;&lt;/g&gt;&lt;/svg&gt;&lt;/span&gt;&lt;/span&gt;6 people viewed&lt;/span&gt;&lt;/button&gt;&lt;/span&gt;&lt;/span&gt;&lt;span data-webitem-location=&quot;system.content.byline&quot;&gt;&lt;span style=&quot;padding: 0px; margin: 0 var(--ds-space-050,4px) 0 0; line-height: 10px;&quot; data-testid=&quot;web-item-wrapper&quot; class=&quot;_ca0qidpf _u5f3idpf _n3tdidpf _19bvidpf _18s8m31d _vwz419bv _10rwidpf _my3jidpf _r8osidpf _aqpeidpf _w5axidpf _13n1idpf _jysiidpf _10e4idpf _syn7bs82 _1w7pbs82 _3e5g1o8l _wm461o8l _154qjjyb _fy3vjjyb _w4kt1ndm _1pze1mp2 _1oee1o8l _sl7xr5b1 _uh5d1c8u _101x1r31 _q7leglyw _hxadnqa1 _11if1r31 _ea6yglyw _1q79nqa1 _151tnoz8 _swoynoz8&quot;&gt;&lt;a style=&quot;text-decoration-line: none; text-decoration-style: solid; text-decoration-color: currentcolor; margin: 0px; pointer-events: auto; line-height: 1.5; display: inline-block; cursor: pointer;&quot; id=&quot;net.customware.confluence.plugin.pageapproval__page-approval-byline&quot; href=&quot;https://oworx-publiccloud.atlassian.net/plugins/servlet/ac/net.customware.confluence.plugin.pageapproval/net.customware.confluence.plugin.pageapproval__page-approval-byline?page.id=1527283747&amp;amp;space.key=HUBPROJINFO&amp;amp;content.id=1527283747&amp;amp;content.version=3&amp;amp;page.type=page&amp;amp;page.title=Version%201.2.7%20-%20RC1&amp;amp;space.id=986939440&amp;amp;content.type=page&amp;amp;user.isExternalCollaborator=false&amp;amp;page.version=3&quot; class=&quot;ap-inline-dialog ap-plugin-key-net.customware.confluence.plugin.pageapproval ap-module-key-page-approval-byline ap-link-webitem bylineWebItem with-dot css-hsahdy e1cucsw0&quot;&gt;&lt;img style=&quot;margin: 0px 5px 0px 0px; padding: 0px; border: 0px; max-height: 100%; height: auto; display: inline-block; vertical-align: text-bottom;&quot; title=&quot;Request approval&quot; alt=&quot;Request approval&quot; height=&quot;16&quot; width=&quot;16&quot; src=&quot;https://pageapproval.dm.appfire.app/assets/byline-default.svg&quot;&gt;Request approval&lt;/a&gt;&lt;/span&gt;&lt;/span&gt;&lt;/div&gt;&lt;div style=&quot;margin: 0px; padding: 0px;&quot;&gt;&lt;span data-webitem-location=&quot;system.content.byline&quot;&gt;&lt;p style=&quot;margin: 0px; padding: 0px; font-size: 16px; line-height: 1.714; letter-spacing: -0.005em; color: rgb(23, 43, 77); white-space-collapse: preserve;&quot; data-renderer-start-pos=&quot;1&quot;&gt;SCC Vision includes following updates in this release:&lt;/p&gt;&lt;ol style=&quot;margin: 10px 0px 0px; padding-top: 0px; padding-right: 0px; padding-bottom: 0px; padding-left: var(--ed--list--item-counter--padding, 24px); box-sizing: border-box; display: flow-root; color: rgb(23, 43, 77); white-space-collapse: preserve;&quot; start=&quot;1&quot; data-indent-level=&quot;1&quot; class=&quot;ak-ol&quot;&gt;&lt;li&gt;&lt;p style=&quot;margin: 0px; padding: 0px; font-size: 1em; line-height: 1.714; letter-spacing: -0.005em;&quot; data-renderer-start-pos=&quot;59&quot;&gt;Notify user for the new version of Vision after logging in&lt;/p&gt;&lt;/li&gt;&lt;li style=&quot;margin-top: var(--ds-space-050,4px);&quot;&gt;&lt;p style=&quot;margin: 0px; padding: 0px; font-size: 1em; line-height: 1.714; letter-spacing: -0.005em;&quot; data-renderer-start-pos=&quot;121&quot;&gt;Merge Private Cloud Demo to Hyperscale customer&lt;/p&gt;&lt;/li&gt;&lt;li style=&quot;margin-top: var(--ds-space-050,4px);&quot;&gt;&lt;p style=&quot;margin: 0px; padding: 0px; font-size: 1em; line-height: 1.714; letter-spacing: -0.005em;&quot; data-renderer-start-pos=&quot;172&quot;&gt;Innovation Request&lt;/p&gt;&lt;ol style=&quot;margin: 0px; padding-top: 0px; padding-right: 0px; padding-bottom: 0px; padding-left: var(--ed--list--item-counter--padding, 24px); box-sizing: border-box; list-style-type: lower-alpha; display: flow-root;&quot; start=&quot;1&quot; data-indent-level=&quot;2&quot; class=&quot;ak-ol&quot;&gt;&lt;li&gt;&lt;p style=&quot;margin: 0px; padding: 0px; font-size: 1em; line-height: 1.714; letter-spacing: -0.005em;&quot; data-renderer-start-pos=&quot;194&quot;&gt;New Innovation points for Databases Requested items.&lt;/p&gt;&lt;/li&gt;&lt;li style=&quot;margin-top: var(--ds-space-050,4px);&quot;&gt;&lt;p style=&quot;margin: 0px; padding: 0px; font-size: 1em; line-height: 1.714; letter-spacing: -0.005em;&quot; data-renderer-start-pos=&quot;250&quot;&gt;Separate Innovation Request Catalogue by Services that customer taken&lt;/p&gt;&lt;/li&gt;&lt;/ol&gt;&lt;/li&gt;&lt;li style=&quot;margin-top: var(--ds-space-050,4px);&quot;&gt;&lt;p style=&quot;margin: 0px; padding: 0px; font-size: 1em; line-height: 1.714; letter-spacing: -0.005em;&quot; data-renderer-start-pos=&quot;325&quot;&gt;Curency Exchange Rates&lt;/p&gt;&lt;ol style=&quot;margin: 0px; padding-top: 0px; padding-right: 0px; padding-bottom: 0px; padding-left: var(--ed--list--item-counter--padding, 24px); box-sizing: border-box; list-style-type: lower-alpha; display: flow-root;&quot; start=&quot;1&quot; data-indent-level=&quot;2&quot; class=&quot;ak-ol&quot;&gt;&lt;li&gt;&lt;p style=&quot;margin: 0px; padding: 0px; font-size: 1em; line-height: 1.714; letter-spacing: -0.005em;&quot; data-renderer-start-pos=&quot;351&quot;&gt;Keep currency exchange rates up to date with Bank of England.&lt;/p&gt;&lt;/li&gt;&lt;/ol&gt;&lt;/li&gt;&lt;li style=&quot;margin-top: var(--ds-space-050,4px);&quot;&gt;&lt;p style=&quot;margin: 0px; padding: 0px; font-size: 1em; line-height: 1.714; letter-spacing: -0.005em;&quot; data-renderer-start-pos=&quot;418&quot;&gt;CSI Dashboard update&lt;/p&gt;&lt;ol style=&quot;margin: 0px; padding-top: 0px; padding-right: 0px; padding-bottom: 0px; padding-left: var(--ed--list--item-counter--padding, 24px); box-sizing: border-box; list-style-type: lower-alpha; display: flow-root;&quot; start=&quot;1&quot; data-indent-level=&quot;2&quot; class=&quot;ak-ol&quot;&gt;&lt;li&gt;&lt;p style=&quot;margin: 0px; padding: 0px; font-size: 1em; line-height: 1.714; letter-spacing: -0.005em;&quot; data-renderer-start-pos=&quot;442&quot;&gt;Show the CSI items in all status types with bar chart&lt;/p&gt;&lt;/li&gt;&lt;li style=&quot;margin-top: var(--ds-space-050,4px);&quot;&gt;&lt;p style=&quot;margin: 0px; padding: 0px; font-size: 1em; line-height: 1.714; letter-spacing: -0.005em;&quot; data-renderer-start-pos=&quot;499&quot;&gt;CSI notifications with new email template&lt;/p&gt;&lt;/li&gt;&lt;/ol&gt;&lt;/li&gt;&lt;li style=&quot;margin-top: var(--ds-space-050,4px);&quot;&gt;&lt;p style=&quot;margin: 0px; padding: 0px; font-size: 1em; line-height: 1.714; letter-spacing: -0.005em;&quot; data-renderer-start-pos=&quot;546&quot;&gt;Ensure email sending to TAM for trial customer going to expired or already expired&lt;/p&gt;&lt;/li&gt;&lt;/ol&gt;&lt;/span&gt;&lt;/div&gt;&lt;/div&gt;&lt;/div&gt;" style="whiteSpace=wrap;html=1;rounded=0;shadow=0;labelBackgroundColor=none;strokeWidth=1;fillColor=none;fontFamily=Verdana;fontSize=12;align=left;verticalAlign=top;spacing=10;comic=1;" parent="1" vertex="1">
          <mxGeometry x="290" y="80.91" width="550" height="489.09" as="geometry" />
        </mxCell>
        <mxCell id="677b7b8949515195-25" value="" style="whiteSpace=wrap;html=1;rounded=0;shadow=0;labelBackgroundColor=none;strokeWidth=1;fillColor=none;fontFamily=Verdana;fontSize=12;align=center;comic=1;" parent="1" vertex="1">
          <mxGeometry x="850" y="60" width="230" height="530" as="geometry" />
        </mxCell>
        <mxCell id="677b7b8949515195-27" value="Section 1" style="text;html=1;points=[];align=left;verticalAlign=top;spacingTop=-4;fontSize=14;fontFamily=Verdana" parent="1" vertex="1">
          <mxGeometry x="40" y="250" width="170" height="20" as="geometry" />
        </mxCell>
        <mxCell id="677b7b8949515195-28" value="Section 2" style="text;html=1;points=[];align=left;verticalAlign=top;spacingTop=-4;fontSize=14;fontFamily=Verdana" parent="1" vertex="1">
          <mxGeometry x="40" y="286" width="170" height="20" as="geometry" />
        </mxCell>
        <mxCell id="677b7b8949515195-29" value="Section 3" style="text;html=1;points=[];align=left;verticalAlign=top;spacingTop=-4;fontSize=14;fontFamily=Verdana" parent="1" vertex="1">
          <mxGeometry x="40" y="321" width="170" height="20" as="geometry" />
        </mxCell>
        <mxCell id="677b7b8949515195-30" value="Section 4" style="text;html=1;points=[];align=left;verticalAlign=top;spacingTop=-4;fontSize=14;fontFamily=Verdana" parent="1" vertex="1">
          <mxGeometry x="40" y="357" width="170" height="20" as="geometry" />
        </mxCell>
        <mxCell id="677b7b8949515195-31" value="Section 7" style="text;html=1;points=[];align=left;verticalAlign=top;spacingTop=-4;fontSize=14;fontFamily=Verdana" parent="1" vertex="1">
          <mxGeometry x="40" y="464" width="170" height="20" as="geometry" />
        </mxCell>
        <mxCell id="677b7b8949515195-32" value="Section 8" style="text;html=1;points=[];align=left;verticalAlign=top;spacingTop=-4;fontSize=14;fontFamily=Verdana" parent="1" vertex="1">
          <mxGeometry x="40" y="500" width="170" height="20" as="geometry" />
        </mxCell>
        <mxCell id="677b7b8949515195-33" value="Section 9" style="text;html=1;points=[];align=left;verticalAlign=top;spacingTop=-4;fontSize=14;fontFamily=Verdana" parent="1" vertex="1">
          <mxGeometry x="40" y="536" width="170" height="20" as="geometry" />
        </mxCell>
        <mxCell id="677b7b8949515195-34" value="Section 10" style="text;html=1;points=[];align=left;verticalAlign=top;spacingTop=-4;fontSize=14;fontFamily=Verdana" parent="1" vertex="1">
          <mxGeometry x="40" y="571" width="170" height="20" as="geometry" />
        </mxCell>
        <mxCell id="677b7b8949515195-39" value="Section 5" style="text;html=1;points=[];align=left;verticalAlign=top;spacingTop=-4;fontSize=14;fontFamily=Verdana" parent="1" vertex="1">
          <mxGeometry x="40" y="393" width="170" height="20" as="geometry" />
        </mxCell>
        <mxCell id="677b7b8949515195-40" value="Section 6" style="text;html=1;points=[];align=left;verticalAlign=top;spacingTop=-4;fontSize=14;fontFamily=Verdana" parent="1" vertex="1">
          <mxGeometry x="40" y="429" width="170" height="20" as="geometry" />
        </mxCell>
        <mxCell id="Up7u5XpW_qCa6S5sLstG-12" value="" style="rounded=1;whiteSpace=wrap;html=1;fillStyle=solid;fillColor=#5e5e5e;" parent="1" vertex="1">
          <mxGeometry x="860" y="82.82" width="150" height="30" as="geometry" />
        </mxCell>
        <mxCell id="677b7b8949515195-44" value="Version 1.2.7" style="text;html=1;points=[];align=left;verticalAlign=top;spacingTop=-4;fontSize=14;fontFamily=Verdana" parent="1" vertex="1">
          <mxGeometry x="870" y="85.82" width="170" height="20" as="geometry" />
        </mxCell>
        <mxCell id="677b7b8949515195-45" value="Version 1.2.6" style="text;html=1;points=[];align=left;verticalAlign=top;spacingTop=-4;fontSize=14;fontFamily=Verdana" parent="1" vertex="1">
          <mxGeometry x="870" y="120.82" width="170" height="20" as="geometry" />
        </mxCell>
        <mxCell id="677b7b8949515195-46" value="Version 1.2.5" style="text;html=1;points=[];align=left;verticalAlign=top;spacingTop=-4;fontSize=14;fontFamily=Verdana" parent="1" vertex="1">
          <mxGeometry x="870" y="155.82" width="170" height="20" as="geometry" />
        </mxCell>
        <mxCell id="677b7b8949515195-47" value="Version 1.2.4" style="text;html=1;points=[];align=left;verticalAlign=top;spacingTop=-4;fontSize=14;fontFamily=Verdana" parent="1" vertex="1">
          <mxGeometry x="870" y="190.82" width="170" height="20" as="geometry" />
        </mxCell>
        <mxCell id="677b7b8949515195-48" value="Version 1.2.3" style="text;html=1;points=[];align=left;verticalAlign=top;spacingTop=-4;fontSize=14;fontFamily=Verdana" parent="1" vertex="1">
          <mxGeometry x="870" y="225.82" width="170" height="20" as="geometry" />
        </mxCell>
        <mxCell id="677b7b8949515195-49" value="Version 1.2.2" style="text;html=1;points=[];align=left;verticalAlign=top;spacingTop=-4;fontSize=14;fontFamily=Verdana" parent="1" vertex="1">
          <mxGeometry x="870" y="260.82" width="170" height="20" as="geometry" />
        </mxCell>
        <mxCell id="Up7u5XpW_qCa6S5sLstG-2" value="" style="shape=image;verticalLabelPosition=bottom;labelBackgroundColor=default;verticalAlign=top;aspect=fixed;imageAspect=0;image=data:image/png,iVBORw0KGgoAAAANSUhEUgAAB4AAAABTCAIAAADxzY2eAAAgAElEQVR4Ae3d+V8T59oG8Pc/yAIhIIuACAInKC7UjYPUtaJWrNQFrKeVt4q11rYUbdXXBdfSuiGtoh4pitpYUdFawFYL1CIoalAxgAhh0cgiAQMBsszbzAPDJISACNXqNZ9+6iR55pmZ78T+cOXu/fwPBxsEIAABCEAAAhCAAAQgAAEIQAACEIAABCAAAQhAoA8E/qcP5sSUEIAABCAAAQhAAAIQgAAEIAABCEAAAhCAAAQgAAEOAmh8CSAAAQhAAAIQgAAEIAABCEAAAhCAAAQgAAEIQKBPBBBA9wkrJoUABCAAAQhAAAIQgAAEIAABCEAAAhCAAAQgAAEE0PgOQAACEIAABCAAAQhAAAIQgAAEIAABCEAAAhCAQJ8IIIDuE1ZMCgEIQAACEIAABCAAAQhAAAIQgAAEIAABCEAAAgig8R2AAAQgAAEIQAACEIAABCAAAQhAAAIQgAAEIACBPhFAAN0nrJgUAhCAAAQgAAEIQAACEIAABCAAAQhAAAIQgAAEEEDjOwABCEAAAhCAAAQgAAEIQAACEIAABCAAAQhAAAJ9IoAAuk9YMSkEIAABCEAAAhCAAAQgAAEIQAACEIAABCAAAQgggMZ3AAIQgAAEIAABCEAAAhCAAAQgAAEIQAACEIAABPpEAAF0n7BiUghAAAIQgAAEIAABCEAAAhCAAAQgAAEIQAACEEAAje8ABCAAAQhAAAIQgAAEIAABCEAAAhCAAAQgAAEI9IkAAug+YcWkEIAABCAAAQhAAAIQgAAEIAABCEAAAhCAAAQggAC6b78D/fr1s7a27ttzYHYIQAACEIAABCAAAQhAAAIQgAAEIAABCEAAAi+lAALoPnwsfD5fJBK5ubn14TkwNQQgAAEIQAACEIAABCAAAQhAAAIQgAAEIACBl1UAAXRfPRkejzdixAgfH58BAwb01TkwLwQgAAEIQAACEIAABCAAAQhAAAIQgAAEIACBl1gAAXSfPBwulysUCv/zn/+MGjXKysqqT86BSSEAAQhAAAIQgAAEIAABCEAAAhCAAAQgAAEIvNwCCKD75PlYWlq6u7t/8cUXo0aN6pMTYFIIQAACEIAABCAAAQhAAAIQgAAEIAABCEAAAi+9AALoPnlErq6un376aUhIiLu7e5+cAJNCAAIQgAAEIAABCEAAAhCAAAQgAAEIQAACEHjpBRBAP8Mj4nK5ZDSfzxcKhY6Ojm5ubv/617+GDBkydOjQIUOGeHp6uri49O/f39/f//Tp0/7+/jY2Ns9wAgyFAAQgAAEIQAACEIAABCAAAQhAAAIQgAAEIPAKCSCA7uJhcrlcgUDg7Ow8fPjwqVOnhoSELFu27KuvvtqyZcvOnTtjYmJiY2MPHTr03//+99ChQ/v27duzZ8+OHTtiYmJ++uknLy8vHo/XxQnwMQQgAAEIQAACEIAABCAAAQhAAAIQgAAEIACBV1QAAbTpB8vn8+3s7EQi0bhx44KCgpYvXx4VFXXixImMjIz8/PyqqiqVStXS0qJWqzUajbZt02g0LS0tTU1NhYWFq1evdnJyMj073oUABCAAAQhAAAIQgAAEIAABCEAAAhCAAAQg8BoIIIA2eMhcLtfKysre3l4kEs2YMWPjxo0XLlwoLi5ubGzU0RvVtpGXJHnWsDatVqvRaG7cuOHr6ysUCg1mxwsIQAACEIAABCAAAQhAAAIQgAAEIAABCEAAAq+TAALo9qfN4/FsbGymTZu2ffv2tLS0iooKhUKhUqnUarVOp6PojcmdW1paGhsb6+vrq6ur5XJ5RUVFeXm5XC5/8uTJo0ePTp48aWVlxfSMbj8H9iAAAQhAAAIQgAAEIAABCEAAAhCAAAQgAAEIvDYCCKD1j1ooFI4YMeKjjz46cuTIn3/+WVxcXFdXp9VqKYoiiXNzc3NNTU1RUdGdO3cyMjLOnj175MiR77//fuvWrREREUuWLAkJCQkMDJw1a9bcuXPnz58/adIkpM+vzV8i3CgEIAABCEAAAhCAAAQgAAEIQAACEIAABF4KAZFItHXr1oyMDIqiZDJZRkZGQkKCSCR6gRf3WgfQXC5XKBT6+fl9/PHHBw4cuHr16pMnT0i9s06n02q1jY2N9+/fz8vLKygoKCkpkclkDx48uHPnztWrVy9dunThwoWffvopLi4uJiZm+/btX3311UcffTR//vzJkycPHjxYIBAgg36B32ycGgIQgAAEIAABCEAAAhCAAAQgAAEIQAACr5XA1q1bKVObTCbbunXri6J4TQNoLpdra2s7YsSI+fPn79u3Lzc3t6GhgemzoVKpHj16lJubm5mZeenSpfT0dIlEUlFRoVKpNBoNGUYqo0lO3dLSolQqHz58eO3atZ9//jk2NvbLL7+cN2/ehAkTvLy87O3teTxeHz3gKVOmfPnllzvatm+++SYgIKB///6dnc7S0nLq1Knr1q1rO2LHli1bgoODSVzu7Ozs4eHhSW/u7u7W1tYmM3SyQqO3t/eUKVPmzZu3YMGCoKAgf39/kUhkZ2dn8hBSZj5gwAAyuaenp5OTk5WVVWfXyeVyLS0tHR0dR4wYMW3atPnz54eEhLzzzjt+fn6DBg3q7MLIbDwez97enrkR5oxkx8XFxdra2ui8pPuKh4fHv/71L09Pz0GDBjk6OhqNwUsIQAACEIAABCAAAQhAAAIQgAAEIAABCLy0AqTqmep8S0hIeCEX/zoG0BYWFo6OjlOmTImOji4rK2tubibPRafTaTSaurq6O3fuHD16NCIiYu3atTdu3FAqlUw2zTTlMHqUWq326dOnRUVFDx8+rK+vb2hoqKqqunz58qZNm95++213d3dbW1sLC4vOwtkeP/v333//woULhYWF9+/fLywsLCgo2Llzp5+fX2cTDho0aNOmTbm5uffprbCwMCsrKzIy0traWiAQrFmz5sSJE2fOnElMTPzhhx/8/PyMMmKBQDB06NAlS5bExsaeO3fujz/+uH79+o0bN65du5aWlnb27Nk9e/YsWrRo0KBBAoGAfQ1cLtfPz2/9+vVn2rZVq1aNHDmyIwiXy7W2tp44ceLKlSvj4uJSUlIyMzOvX7+ek5OTnZ2dlpb2008/ff3113PnznVzc+t4OIfD6devX0hIyLFjx8ipEunt9OnT5GV0dPSMGTOMDrS3t3/rrbcSEhLImEOHDi1fvpx9/diHAAQgAAEIQAACEIAABCAAAQi8QgJeoduTsmQKlYpq3dQqRYU0LW71dG/Tdxmf3zbS6E+VQn4jKWqRV4fD4qVGI8lLtUpVXZJ1LmrZuA5HmHzDO1qioqgicRDrU69F0Sl5ckXbxasUcmlqdChz5d5RWUqKkqcsYx3ycu/qrRTpq81e5Oo0BUUp0swPMjvDK/4h/RWVxr/id2nu9sLCwijDjfTfMHyPCgsLMzdL33z22gXQPB7Px8dn06ZNOTk5dXV1TEUzRVEtLS3l5eU7duwICAh4++23Dx48WFlZ2dzczKTPTL1zS0sL06mDeYoajebOnTt79uzZu3fvzZs3m5ubGxsbFQpFcXFxSkpKRESEt7e3UCjs3ec4bdq033//XaVSaelNo9FkZmZ+8MEHlpaWJk80ffr0pKSk5uZmZnxubu5XX30lEAiEQuGPP/4ol8uVSqVCobh///6sWbNsbGyYeRwcHGbPnh0dHX3lypVHjx41NDQQPVIMrlarlUqlTCZLS0vbs2fP1KlTHR0dmZyXy+XOmjUrMTHx6dOnSno7evToW2+9xQwgZ7GysvL29l6xYsWxY8du3bpVVVXV1NSk1WqZenPyC0FRUVFycvKWLVumTZvWsebawcFhzZo1Dx8+JCd69OhRcXFxeXk5eVlYWLhmzRo7OzvmvjgczoABA/7zn/+UlpaSMVKpNCYmhj0A+xCAAAQgAAEIQAACEIAABCAAgVdEYE50mkyf3aoqJCn7IkM/DA39MDRyX1Janpx+tyRls2/HO9Wne4qsaHowOYT+d2Ts6awSpX4y6VF2RMzhcOhQNTuaNVh/ovBv41MySxRqilLJTZ7I8NReUdkqiipJmtP+dtBRqf46FdK041HhH4aGRkSJ06X6CRWS2LZhXjH61LrktNEltU/yku0hgO6FB4IAmmJt7KbPpCU086FMJvv7+0H3XgA9Lsjovym98TLIxH/zevqd5PP5Li4uYWFhiYmJ9+/fZ3pukMLn4uLi+Pj44ODg4cOHT506ddeuXaWlpWQdQoqinj59evfu3fj4+A0bNnz66afLly9fuXLljh07kpOTy8rKWlpaSEJaV1eXnp6+fv36efPmbdmy5ebNm/X19S0tLbW1tVKpNDU1NTIycsqUKba2tj29CePjXFxc4uLiHj9+TFJarVZbWVm5adMmZ2dn46EcDo/HW716dW5uLhPptrS0nD59eubMmTweTygUnj59ur6+nqIotVpdXl4eFBREAmgulysQCGbNmvXTTz9VV1eTwzUaDUnYnzx5UldXR0JtgqlUKn/44Ydp06b169ePXAaXyw0KCjp//jyztKNYLA4ICGAH0EKh8I033ti4cePdu3fJ0yGJf0NDg0KhePLkSX19vVqtJmdvaWmpqKgQi8WBgYFOTk7sefr3779+/fra2lpSrv7w4cOcnJybN2+SZ9TY2Hj48GEfHx+2j4uLy6JFiyorK8mPDSUlJfv372cPwD4EIAABCEAAAhCAAAQgAAEIQOBVEJgTr49vOwl/vRZFZ8n14a5kn3F0SwfQnZTfeoeKi/RHpX3JFjIbqs6JzqqmjJJl9sGt+0tT5EalwfQ7VEVKOFPvTA/1WquvD6aKxNNbjwxKklGUShJtOMzEKV6Kt8xatV4hKqC7eFSveQDNLn/OyMjoiJWQkEC1bX9/M+jeC6CPmv5fK9purWd/liTN5PTKZm9vP378+MjIyCtXrtTW1jLJMkVR9fX1GRkZmzZtmjRpkrW1tbu7+/r16/Py8sgVazSae/fu/fDDD8uWLZs4caKXl9eAAQMcHR1dXV19fHyCgoI2bNiQmppaXV1N8s3q6uoTJ04EBgYOHTo0LCzsxIkTRUVFpFK4ublZKpWKxeKIiIhx48bZ2NiwY9Oe3Safz1+1atWtW7eYTFmj0SQkJPj6+hpNTlpb/Pjjj+T2mcQ8KirK09OTrMfYWQBtaWnp4eFx6tQpcptarbapqUkul9+8efPixYsXLly4fPny/fv3FQoFk8U/ffp07969o0aNIpfRZQDN4/GGDRu2bt06piydBNyPHz/Oycm5ePFicnLylStXiouL6+rqmLO0tLScP39+xowZ7LbO7ACaoqiysrLTp08fPXqUad596dKl4OBgtg8C6J59/XAUBCAAAQhAAAIQgAAEIAABCPyjBJbpA11Kkba2Y8eMtvvwXp1WrS9ojjcMZMwF0BwO50t9/qvKjmqbpa0C2kxbCfoQKjeadYjRrldsLkWpDa5kdbr+PFmbjUbqX9K10vKUD9s+2pyloij5hX9EHw4E0G1P7Tn+fM0DaHa+bLLAWSQSUW2byYT6Oey7PvTVD6C5XK6bm9u777574MCBiooKjUbTpk1pNJqqqqpffvll6dKlHh4eXHp77733fv/9dzJMq9XevXt3+/bt48aNM9nUgsvlDhgwICQk5NSpU7W1tSRoLikpiY6OdnBwEAqFU6dO3b179+3bt5lWHk1NTYWFhQcOHJg/f/7gwYPZyWnXj8vUiMmTJycmJjLdMDQazZ9//hkWFsYOWDkcjkAg+Pe///3nn38yzUPI3S1ZssTS0tJ8AN2/f/+lS5feu3ePsDQ2Nubk5ISFhY0ePdrDw8PNzc3T03PSpEnff/99cXExibY1Go1EIvniiy/4fD6Hw+kygHZycvrss8+KiopIkq7Vaqurqy9evPjee+/5+Ph4eHi4u7sPGTJkwoQJ33///f3798n9ktbb+/bt8/f3Z+7XKICuqKiIiYn58ssvycXrdLrCwsJt27axW3IjgDb1zcJ7EIAABCAAAQhAAAIQgAAEIPBKCUynawe7zGS9tuujW1VmJPvmuwig6YYbVD67AW+XoWpXJb0zxSUmL4PqpM8v/b/mB7W3lqbTdmWWwW2wb+kl2u/SisPhdMX1Et3Oi7mU1zyAlslkVNvW2QNgxiCAbqNq/fN5K6AtLCycnZ2XLVuWnp7ORMBkbrVaXVlZmZiYOGHCBJIC83g8GxubkydPPnnyhKL08XRtbe2qVatM/m7AfpaWlpZ+fn6//fZbXV0d6RqRm5s7efJkMq2Hh8eKFSsKCgpUKhXTTlqtVhcWFm7YsGHMmDHW1tZMeMqetpv7zs7OX3/9NVPXrNVqy8rKdu/eLRQK2dPa29tHRETk5+cztdJarfbYsWOTJ08mybuZFhxubm6HDh2Sy+UkXC4vL1+6dKlIJLKysuLz+Twej8/n9+vXb9y4cbt27aqsrKyhN5lMtnv3bgcHhy4DaC6X+84775w5c6apqYn0zaisrDx27NiMGTOcnZ0FAgE5i4WFhY2NzciRIzdt2nTr1i1yMVqtViqVrlq1imn30TGA3rRp09y5c4uLi0npdH19fWJioouLCwnHORwOAuhuftkwDAIQgAAEIAABCEAAAhCAAAT+sQKh+vJntSS2664UvkEfhoYunM4uk+4igP6QLq02KGfuMlSlE9XO0mQOZ1mqvv2GYVsPTrz+/1cvEXd9C/qnNP1kCUVRkn/AGk9dWhkH0F77JHqIk20dR4y/lPSzbgvf25NZ79DoVCmzeKOiQiKOMN371jdCrF+jUk3pN/0ClSZG0tXo+gfkGyGWVOgHt6+jOC5cfMNglUjJ8XATZ/IOjTonMRh3Qxze/hMCc1f6NTPJKegLolTV0pSYUPb3U19yr18ns8OPE/Qty/X9WehNpTBYr5Lz6mwZGRnkFimK6uyuXokAurObe3HvW1hYeHh47N27Nz8/nx3+koizrKzswIEDQ4YMYYJaGxubgIAAiURCGnRUV1fHxsYOHz7cwsLC/E1wuVw7O7spU6bcvn2bRJyPHj3at2+fm5sbh8MhvafffffdW7duNTY2Um1bS0tLVVXV2bNnFyxYQGqQzZ+ls0/5fP7ixYtv3rzJJMtKpfLs2bPe3t5MwMrj8Tw8PMRiMdMtmjS4WLlypYeHBwmIzQTQnp6e58+fJ7m8Tqd78ODBW2+9ZbSOH4fDEQqF48eP37BhwyZ6i4yMDA4OJg2vzVdAC4XCzZs3M9XTWq32l19+WbBgAXsJROb2eTzeqFGjoqOja2pqSAbd2Nh47NixsWPHkjEdA+h169b5+/ufOnXq6dOnpEt1dnZ2QEAAsyYkAmiGFzsQgAAEIAABCEAAAhCAAAQg8GoKzEzSx7H58UaxXTdv1mwA7dXaGWM7e+4uQ1XzJb10hKow7jpNMuXOg1fDu6Fv2bAxiOGAl+VVl1bGATSHE5mlpCh5iukOI4a9s1uTWe/VaXJFSaY4KoIsO5ki1ceyqpLT4ezHxuF4hZ8uofuES5K+DafXjRRn6VetVMkvrGaPbA2gj6fJq1sXhAyZRn++VEwfX5LFrBKZSb9RkbKa/cvBHNJwXNV2SeFRx7P049RywxYxXqsv6RvHqGRZYvp6QjfE09dDyS8ZXI+JAJq0GlcrpOnxkfr1MyNjU43Xq3xZvgLPfR1bt26l2raAgICO87FbcCQkJHQc0Kfv9F4Ljj69zGef3NbWdurUqfHx8SUlJaSulmrbSBOGPXv2jBw5kp38DhgwYNu2beXl5RRFNTc337p1a+LEiUxdLbmEgQMHjqY3FxcX9kXx+XwHB4eYmBiZTKbT6RoaGm7evPlXTkrCaz6f7+TktHDhwvT0dHYGTRpNXLlyZevWrUOGDBEIBOw5u7nP5XInTpz4ww8/MAv0qdXq7Ozs4OBgKysrMom1tfWbb755+/bthoYGklM3NTUVFBTMnDmThLDmW3B4eHgkJiZWV+sXCNDpdI8ePVqzZo2vr6+Tk5OVlRW7ztrS0tLOzs6+bbO2tubxeF1WQItEopMnT5ISdZ1O9+TJk7Vr1w4aNIg9M1uDz+cHBwdnZmYybZ2vXr0aFhZGxpgMoIcMGRIeHi6Xy8mvCw8ePNi4cSOpzkYFNNsW+xCAAAQgAAEIQAACEIAABCDwagrQjTUUl8J7dnedBNC+QRGxKUX6vswlhukkh27K0V4S2/GsZDnBzgJxb7r/hkFTaXoK7yh98Nrd1QXpFLs6rYf33PGa++qdHgTQpELcdDtsunhcnrK09XLpZLYkK7PEMNjlcDhB8fkqo57gpAGL4ka04TKUvpF0921JTHsETQfQlKoizSBW5kzXr0jZodA+6Kh+8UtW+xd6lUh1SdJn7RPqL7e1BTlr9Uj6e6LKjze8HnLl7fdoqgLa9Cm8FonpS+kku++rR9zn8wYEBFBtm0wm63g+dok0k6F1HNZH77yaAXT//v3nzp177NgxUvDb5t/6Z1lZWUxMzPjx40k2SmS5XK5IJEpOTlYo9D8AVVZWHj9+3M7OjhljY2Pj7++/efPmI/S2adMmf39/dgdnPp8/f/58kopqNJrq6upZs2YxZcJcLtfR0TE8PDwrK4u9BCJFUY2NjQUFBbt37548ebK9vf2zPmkul+vq6hoeHl5fX890Ri4qKvr6669J9TGHw3F1dQ0LC6uurmYGKBSKhISEN954g4S85gPogQMH7ty5s7y8nAS+arW6oqJi7969wcHBI0eOdHFxcXBwsLGxIb0yTF6/mQpo0n8jPT2dTK7Vaq9fv/7uu+8y5dsdJ+RyuaNGjdq5cyeR1Ol0Mplsz5495GGZDKCdnZ3Hjx9/79695uZmiqJqa2tTU1M9PDzIIaiA7oiMdyAAAQhAAAIQgAAEIAABCEDglRKgG0BLjxrfE51OUqY2g24GnQ5Tq+S5KVGLDGNE/UnMhqreoWISfX5pfD2tr9fqVzUsOW2ixYQX/VGHRNL0PNG5ptoymB77At/VW3VrY5eE0z2yqdzYDvR0aTmrOJo8O8Wl1SbucGa8VE1RReI26NbG2VHsUuXWw4xrrkkALdlndH767EVio3c5nKDIOLH429aK7dYWIqcNU2VyIrJ6ZGrryJCTUpVSntLxe0IvYim/EMrcFH2b7V9aM6do7c1ifOXMTP/IHZFIxHTYoChKJpMxddAikYidPpuMp/v6nl/BAJqkz4mJiaQjM8XayJp1R44ceeutt4waa/D5/DfeeCMvL48065BKpf/3f//HZKB8Pn/IkCGxsbEVFRVqequoqNi/f/+QIUOYMSTCPnv2LElFVSrVsmXLXF1d2Y9w8ODBmzdvZn8hyNWRUuhDhw4FBgb279+ffUh39q2srGbNmiWRSEgRsVarlclke/futbe3J/nyqFGjDh48qFQqSc8KjUZTXl4eFhY2cODA7gTQtra2M2fOvHnzJrOAoVqtrqurk8lk169fP3PmzLfffhsaGurn5+fs7Mzn8ztWLpsJoHk83ueffy6RSJh0+/jx42+++WbHSdgUAwcO/Pjjj5uamsgd1dbWnjx5knRTMRlA9+vXz9XV9fz586RxR3Nz8/379ydNmkQq3BFAs22xDwEIQAACEIAABCAAAQhAAAKvoEAnAbTvHH1DBqN/koqMc1t9uqfIijYeGR4Vl5IlU1BqhdS4ya/pANprWkhkXBpp/iA9btzGt52dvlrj9s30m1RnGzucbZuotU1Ex/iybUBXf05cfTpLmift4p/spNWTu5rJ3Oe0VXa00VMwfBmdpdAXK7NSZK9YfbxeIp5pODUJcI2TWXnKh4bD2l7RGX3bGmx0L+/Ompa0Fla3zdOJrRcdBCuyOvRobjuh/s/WHwZMxNz6umx9VL1v9UT2ASb29WjsSzUKoA3uy+hw71iJmqIMWpYbjejq5cLYtNyuvhV5krR9IV1N1Jufs4ugKXrrmEBSFMUE07157q7m6r0Aml5s1PDvhvF/v5790yATHcq7uqVJkyZdvHixoaGBpjb4V0tLS0FBwYwZMzo2uxAIBP7+/uXl5aSJ87Vr1z744AMmXLa1tX3nnXeePn3KFC+TLHvWrFnsHh2Wlpbx8fGkxvavvh/r1q3z8jL4yYfL5b755pv//e9/SZLLvjidTtfU1HT27Nl33nmHXVjd1e3qPydtkQ8cOMD0OJZIJEuXLiU9lC0sLGbOnHnr1i2mx4VSqczOzibrH5L5zVdA8/l8Z2fnLVu23L17l7lynU6nVqsbGhqqq6tLSkpyc3OvXLly9uzZXbt2ffDBByKRiI1sJoDm8/mbN2/Oz89nAujdu3ePHDnSfABtb28fEhJCaropimpoaPjll18GDBhgYWFhMoC2tra2tbVdv359QUEBWSiypqYmIiLC09OTy+UigO7O1wxjIAABCEAAAhCAAAQgAAEIQOAfLPAsLTiMsrzW/gYG6aeBBGmwoEhn9+TtvKpXrVLkp0SbKJpun3P66ZKOKxBy2qOn8CSZPntNWs6KngxXTSRzeR03NU/7ebqx5706pUJFmdlUHfpIdGNWwyGmw3rDMaZaZhsWC5PxUdkqvQwrldY/TWVWlOF0zKtW6rX0G3H6UuyOZfKtg2P0Kx8yn3YSQHM4c2IlZNE/lUKen5VyPDbS+NGEp1UbhenM5XSyMy4o/Nv4pHSJNK9EoVSplG1PJD+eOcDwS2v+FKY7jDNTdWcnaF/rXVKdbIpsozYm3Zn1ecewO0GbvK6tW7c+7zl6dHzvBdDmf4YyedNdv2nwF6abNxgcHHz16lW1mizVaXCO5ubmvLy8juXPHA7HyspqwoQJDx8+JAHr1atXg4ODmf4bLi4uS5YsYbJX0gpZrVYvWbKE3Qyax+Pt37//6dOnFEU1NTVt2bLF29v41xwbG5s5c+bIZLKOV6jT6err63/99df58+d382aZYS4uLqGhoXK5XK1Wq1Sq1NRUX19fS0tLDofj6Oi4fPlyhULB9N+oqKiIi4tzcnJibtB8ALpec1UAAB4fSURBVE2aOPv6+m7YsCEtLa2qqopZ8JAUIDP/bmxsLC0tTUtL27Fjx/Tp05lqbvMB9LfffltUVMQE0Fu2bBk2bJj5ALpfv37vvvtuRUVFS0uLvhW9SvXrr7/+teakpaWlyQBaKBQKBIJp06ZduXKFODQ2NorFYj8/Px6PhwCa+SJhBwIQgAAEIAABCEAAAhCAAAReTYFnWISQzjqp9m4GXQbQHA6pxmWX2Zqu6m1dp64r4k7DzbYDuxzQOlCfVinSel4BTU9jJoPuhfS5q3YlrXdiKoDmtHbMiGxj4XCi9bW97S019B/ok9nOfzzg0IFea6zcjXCv6wBaf07fZd+K0/Lkirag2LBG3uS9tN+D4V5QdLp+bUJKH2dLs1LF4uOx+hUFF+q7hFOdBtDkO0yZ28yYGF5BZ6/MZNAvJH0OCwszd7/0ZzKZ7IVk0K9gAO3m5vbRRx9dvnxZpWK+5q3+Wq22vr5+27ZtPj4+Rt8egUAwbty4srIyUgF9/fr10NBQJp+1s7ObPXt2XV2dRqMhc2k0mrq6utmzZzNdnjkcjqWlZVxcHDlvU1PThg0bBg8ebHQiGxubuXPnlpeXdwygKYqqq6s7d+6cv7+/0VFdvhQIBCNHjszJyVEqlZWVlYcOHWL6b4wePXrv3r1MZKzVam/evBkWFkaWHyQzdxlAkzrrIUOGhIaGHj58OD09PTc3t6SkpKqqqqGhwSia1+l0lZWVR44cmTlzJqmD7n4A3dLS0oMAurGx8eLFi+YDaBI0//jjj/X19aR8WyqVzp07VygUIoDu8guGARCAAAQgAAEIQAACEIAABCDwDxegqz47rA5n4qbI8oDPFkBz6ELa9vLYLnpAmzirwVtdVi63BtARBkd1fGG6krrjuC7fMZlB9076/DwBNMeonXFr4+OTbS2d6ft61groktOsunLjpiuhQeNasbr7G4D39GXfirNk+oyurQ+1+fJkg4ex+hK9xOW58A49EugS+04DaHKKjk1jWLdmXJdtcN5uvjCZQb+Q9LnL2meKtf39GXTvBdAHJSq6Br5X/y01bmTTvefv7u6+ePHi8+fP19XVMU0zGOcbN2588sknAwYMYE/G7gFNUdS9e/fWrl3LtOCwsLAYPnx4QkICuwf00aNHhw8fzvSS5nK5gwYNSkxMJCG1SqX67LPP3N3d2WexsLAYP378vn372N08mAurq6tLTk5evHixk5MT+6hu7js5OR08eLC8vFwikaxatYpUEPN4vAULFly+fJkJoJubm3/++Wd292pS4CwUCk+fPl1fX09RlFqtLi8vDwoKIk082BfwV5W3jY3NyJEjQ0NDv/nmmzNnzuTk5BQXF1dVVSmVSlKPTCrE6+vr4+LiiID5AJrdgqOlpWXXrl3M6ojsU7P3TbbgcHFx6awFB0nbuVzupk2bCgsLScl2c3PzypUrXV1dEUCzbbEPAQhAAAIQgAAEIAABCEAAAq+kwHS6vlV+oXV5t07u0SsqWyGXK6gXGkC3luXGdXKNHLq+VZnFqvw1PZIOSdl12aaHdetdowy619Ln5wqgOaSdcWvJM6lDl8Yb/t/4dG+KThEMeiXTPaDZK/uZkeluAN06RdvyhvRLsz2gp68+KBYfXE2H6PSDlqe0LzXIXBB9qZ1XQNNtptWSaGZ8n+0YZdAvJH1mrzFI0ZtMJsvIyNi6detfK8AlJCR0bAb9Ny9F2HsBdJ89yJ5N7OTkNGfOnNOnT1dUVJCmzOQBUBTV0tJy/vz5+fPn9+vXj93nQSQSpaamKhT6RjVyufzo0aO2trZMEbSNjc2kSZP27duXQm/79u2bOHEiO5/l8XiBgYEZGRmkxbBCoQgODmZ6UHA4HD6fP3LkyG+++UYmk5F2E8wlkUUIf/nll0WLFjk4OPTslm1sbBYuXHjr1q2kpKQZM2aQW7O2tl67dm1paSkJoLVabXl5+e7du62srNj33p0KaOaquFyupaVlv379HBwcXF1dR4wYERAQ8Pnnnx8/fpzJdimK0mq1V65cWbBgAQm4g4KCzp8/T34P0Ol0YrE4ICCAy+XyeLzPPvuMvQjhjz/+aH4RQi6X6+rqunz5cqardW1trVgsJjfVWQsOchnz58+/ePEi8ddqtYcPHx4/fjwCaObhYgcCEIAABCAAAQhAAAIQgAAEXl0BOgSkFGlrDRasYt+v19o0RXVafPqzBtAk+mQ3u+hOX2P2mQ33v0xTUFQnSWhQdDa9Hl/nd8HMFZ9nvJoi81FPdpgMujfT5+cLoDmcyEwVRclTlnI4M+muFLmxRk+XDqApRTpr/ULm5mfGSw1adtDfEHmKqd8ovKLS5SqlJH5C68GmA+jOlzGkL6O1r0trpfbpIOZC2nfmJJVQlOoGiY47DaCD9F3CzbTg4JBTSPYZYdDnmSOWKlXyVFMg7dfxDHtMBv1C0mej2meZTGZymUGRSGQUQ/+dddCvbADN4XAEAoG3t3dcXFxRUZFKpWJnvkql8ueffx4/frxQKGRyWBcXl2+++aa8vJyE1BKJhL1MH/neCYVCd3pj968gyaa1tfWOHTsePHig0+mam5uLior8/PyYhfj4fL6bm9uOHTuYZsdU26ZWq2tqas6cOTN16tRnXX6Q/bfBwsJiyJAhR44c2bhxo6enJ/lo2LBhBw8eVCqVpOZXo9GkpaWxu4uQYWYCaC6XKxAI7Ns2Ozs7a2trBo3H4wkEAjs7O3d3d19f308//fT3339nUuZ79+6tX7+eR2+dBdBcLnfmzJm///47eUAajebWrVvz5s0jDazZN8jsc7ncsWPHkr4ipNq6uLh4586d5NcCMwE0h8MZPnz4/v37SZsUnU537dq10NDQgQMHLlq0qLKyklxDSUnJ/v37mdNhBwIQgAAEIAABCEAAAhCAAAQg8IoIzImXqihKJU/bbSL7892cIlfp42k6W3yGHtBkEUJKlsSa9PkCaA7dYCHXuIDVa1F0WoWKUslTNndoyWDiCXUaX5oY2823vFenyUpSupF9d3M+elh3rOh7Mdm2mG6ZosqMbG3HEWN8Zjr5LZHmlXT44SEoPl//bcja3p7SesVIVJQ+rW5/i55P/8sERalyo5n3TQfQnCD9+pDqEvEcw8sYF6uft705deuwpM+Y+ejx3m3LS7YdTtdKd/jJZE68NK9EbjaA5pAG2SppfNtUbRdE7pqO7Nveev4/g45K5TdiWd//55+yWzOIRCKKtZnPlEUiETutrqioMBlVd+vEzzjoVQ6gSaGuq6vrp59++scff5BqWfJQtFrtkydPLl686Ofnx1Qx29jYTJs27e7duyTTrKys/O6770QiEZuUy+Xy6Y1JYMmnNjY2fn5+169fJ8lmdXX1yZMnPT09yTALC4uBAwfGxMQUFRUZtX7WarWlpaXffffd8OHD2cEu+6Td3Cch8qxZs/z9/a2srNgFv6RHs06na2xsPHTo0NixY43mNBNAW1tbjxw5cuPGjVvobf369f/7v/9r8lJ5PN7w4cM3b97MnO7Bgwc7duwwH0BzOByRSHTixAnyI4FOp3vy5MmGDRv+9a9/GV0k81IgECxcuPDq1askL9bpdJmZmYsXLyba5gNoOzu7VatWkSJ0nU73+PHjzZs3Dx8+fNGiRVVVVQigGWTsQAACEIAABCAAAQhAAAIQgMCrKTAnOo1uyKuqkKTERYXTTX4j96VIKlSUWp5FB9OdBNAdO+qGR8WlZMn0/ys5Jc+KNkj6uhOqmgGers8xlVlR7CERKXKKUsnSoiNYnXyNmhTPYQXTdDWu6cpf9rQvfr87Vp0H0Jzp4jyVqloi7ShG31pr6bH36jS5oiRTHEXrRe5Lkeqfm0p+wShr9lp9Qa6PpWVZ4m/DQz8MDY2IEmfSywDK01azmnt0EkBzOORHDrVCmkqvFvhheNTxLP3xKnkSezXIOdFZ+ghZ1XZJ4VHH0/SXpJansX9dMJ4tMjZVqlBK4+fQP1F02gOavvM5sRL9hMyVhDJ3LT3692fFffI9YzffMJ8+M6dnZ9B/WyOOVzmAJrI8Hs/d3X327NnR0dEFBQVM/qvRaGpqalJTUxcsWDBw4EDSIsPR0VEsFldXV5Mq5tLS0vDwcJFIZBQ3M8+M7FhbW/v7+ycmJtbU1JBOF/fu3QsJCSHrE/br12/ChAmHDx9+8OABe11EEgdnZGSsXLnSx8dHIBCYP4vRSTt7yefzSSEwyd83b94slUqZ/hulpaVfffUVuzEImcdMAG1nZ/f222+XlJTU1NTU1tY+evTot99+GzlypMlibQ8Pj88//5ws5KjT6e7fv799+/YuA2iBQBAZGUmKx0n6n5ycvHDhQmYdRfbNWlhYjBo1KiYmpq6ujuTFjY2NCQkJo0eP7k4Azefz582bd+nSJXJsc3NzQkJCYGAgAmg2MvYhAAEIQAACEIAABCAAAQhA4JUW8ArdnpQlU6jUVOumUkjT48MN1pfrUAHdNtbgT5VKIctK2Wd6jbjnCX9DL+jT5qzNnPaN7sthcPaOL1iJJL0CoeEM7XO9VHvPGUDT90J6X2SaaIvd3vvCOzQ6VarQLweo3xQVEnEEK6/ntG++EfFp+e1fD5VCLjlu/Ig7DaA5HM648Pj09hNRKoX8hpj5drWfxjs06pxEzlyQflhS1CLDmmgOhzMnMimv7WLUKkV+SrR+TDcCaA6HY3wK5vD2q/jn7oWFhVFtW/ejZKNeHH9PEXTvBdCbk6R50t7+J8nE35sefS9sbW3Hjh0bERFx9uxZmUzW1NREOjU3NjampqZGRESMHj3awsKCy+V++OGHV65cITm1Tqf7888/16xZM2bMGKaZBvv8XC534MCBQUFBBw8erKmpIZW/pH+0m5ubhYXFoEGDFixYcOTIEblczmTfpD9yRUXFyZMnFy9e3GXAzT5j9/d5PJ6jo+OpU6fISow6nU6tVv/2229z5szpmHSbCaD5fL6Pj09eXl5jYyNBe/jw4Zo1a4YNG2ZtbW1hYUFKwi0tLW1tbadMmRIXF8e04Lh58+aKFStIo+fOWnCQSu2333771KlTTE/n+vr6n376aerUqXZ2dgKBgDmFjY2NSCT6+uuv8/PzSVMRrVabn5+/cuVKpimK+QpoLpc7ZsyY6Ohopkz7r+r4L7/8MjQ0FBXQ3f92YSQEIAABCEAAAhCAAAQgAAEIQKBvBeiOxqob7T0fnvF0rave9Vay9Ixn/7uHL0vtkNe3XUJ7AN32Dv58NQQSEhKotu2ZcmR2445u1k0/p1jvBdD0Uqptd91bf5YkzXzOG2w/nMvl2traTp8+fffu3enp6WVlZSTuVKvVt27d2rFjx9SpU11dXQcPHrxt2zamU7NGo5FIJLt27Zo9e/aoUaM8PT2dnZ0dHR1dXFwGDx48fvz4Tz755MyZMzU1NaSiVqlUpqSkLFy40MbGxsfHZ8WKFcnJyU+fPiWfkui5rq7u9u3b+/fvDwgIsLe3b7/EXt0TCoVTp07NysrSaDQkq1Wr1d98842Pj0/H85gJoEnIvn379rKyMjJPS0vLw4cPv//++zlz5gwdOnTQoEGenp5jx44NCws7depUbW0tc7pz586Rdh88Hs9MAM3hcPr37798+fKCggImVn7y5Mmff/65cuXK8ePHi0QiDw+PkSNHzp8/XywWy2QyUmSt1WobGhr27NkzZswYJlU3H0BzOBxHR8clS5Y8ffqUFIbLZLKEhISPPvoIAXTHLwbegQAEIAABCEAAAhCAAAQgAAEIvCABsrBhibhn0dDmLP3afBdMLaf3gu6nL09Lp+0mO0RzOAig+1L+Rc7NXlTwWa+DOTYjI+NZj+3B+NcogGZ0bGxspk+f/t1330ml0traWpVKpdFo6urqMjMzly1bNmLEiGnTpsXGxioUCqaSV6VSFRUVHT169Kuvvnr//feDg4MXL168ZcuWS5cuPX78mAyjKKq5ufnmzZurVq3y9PT09/c/cOBASUkJ8ylZ27Cqqio9Pf3jjz92cnIivTKYC+vdnf79+2/cuLGoqIjErGq1ura29v333zcZeZsJoDkcjlAoHDNmTGJiIlmmT6vVqtXqsrKy7Ozs5OTkM2fOJCUlXb58OTc3t7KykuTdWq321q1bq1atIn1IuFyu+QCaz+cPGzZs7dq1Dx8+JD8MaDSa+vp6qVSalpZ2/vz5pKSk1NTUnJycx48fkwFarbaxsfH48ePTp0+3tbVl9LoMoC0sLAICAv66PFIIr1QqMzMz16xZ8+TJE/I7ARYhZDCxAwEIQAACEIAABCAAAQhAAAIQeGEC9PJ6PerjMV1cRFEqSTSrZ/ELu4u/4cQkbU81nbYjgP4bnsALOQXVtiUkJDzrBTDNo7vfu+NZT8Ee33sBdJ+04EiL7tnPXOxb7LDP5XKtrKxcXFzefPPNjRs3XrlypaamRqPRNDU11dTUXL58eePGjR999NF3331XX1/PZNBqtVqpVNbW1lZXV1dVVdXU1CgUChJeU/Sm1Wrv3Lnz+eefz549e9u2bfn5+QqFwqjtxp07d7Zv3+7r69uvX78+TZ/5fL6Xl9cvv/xCSrN1Ol1DQ0NGRsb48eNNnpcdQOt0upaWlvLy8qCgILJCI/l03rx5x48fl8lkTPMKtVqtUqmUSmVDQ0NzczNJujUaTWNjY1ZW1rp165i+zOwAmtQ4i8XigIAApmyZw+FYWVn5+Phs3rw5MzOTPBHS8aO5ubmhoUGpVKpUKnIKcjsFBQVHjhwJDAx0cnJiz8ME0ORE5eXl69atYxp0kK/DiBEjDh48SLpIazSa4uLihISE+vp6cggCaKKEf0MAAhCAAAQgAAEIQAACEIAABF6ogFdUtoqiSpIMljfs+oq8YiT6w06/IgvNdXnDkZn6au+UpaYHIoA27fIPf5fdRqMHATR7KcJnat/RM7beC6B7dv4XdxSPxyMNhSdPnkzi5itXrlRWVlZVVeXn52dmZqalpV27dq22tlaj0VBmN7VaXVlZ+euvv/7www/Hjh27dOnSgwcPSJUuOa6pqam4uHj//v0LFizw9vY2uXxf70rY2NhMmDChoKCgsbFRo9GQK9yyZYuXV4dW7vSJSSifkJBQVlZWW1tbVVV17969wMBAEkCTaxMKhYGBgd99911WVlZpaalCoWBCZ61W29LSUl9fX1FRIZFILly4sGLFiqFDh/L5fHIsl8sNDAwUi8VPnjyppbe4uLjJkyezg2MOh2NhYeHi4vLJJ5+IxeJbt249fPhQqVSq1WqSO2u12qampurq6sLCwl9//XX79u1+fn4dMR0cHP4qVJfJZOREeXl5q1atMgqgBwwY8MEHHxQWFpLrKS0tvXr1amVlJTnk9u3be/bs6d0ngtkgAAEIQAACEIAABCAAAQhAAAIQeGYB72h9llwkfoYs2TsqS6nPY03XAz/zFbz0B3hHS+j7De3kShFAdwLzz347ICCAatvCwsKe9WYQQD+r2POO5/F4Tk5OY8eOfe+991avXv3999+fOXMmLS3tKr09evSINGrQGW4kcm1oaFAoFHK5vLCwMCsr648//igpKSGL9ZHvgFKpzMvLO3HixBdffOHn52dvb28UuT7v1XdyvJOTU0hIyMOHDxsbG1UqVWNj4/379wMDAx0cHEweweVy/1plcefOnX/88UdOTk52dvbFixenTJliFO/y+Xx3d/eQkJD4+HiJRELSeZ1Op9FoFArFvXv3Tp48+dlnn/n4+BgdyOVyp0yZsnfv3py2LSoqaty4cSY1LC0tfXx8Pvnkk8TExKKiIqVSSdp6NDc3V1ZWZmRkfP3119OmTesM087ObunSpenp6eRUycnJS5YssbKyYt+4lZXViBEjzp07d+3atZycnOvXr2dnZ7ddWs6FCxfWr1/PHo99CEAAAhCAAAQgAAEIQAACEIAABCAAAQi8JALsAFomk2U848b0gKYoSiQS9fVNvb4V0B1luVyuhYXFkCFDZs6cuXz58m3bth06dOjkyZPJyckkj87Jybl9+3ZBQUFpaenjx49ramqqq6sfP35cVlZWWlra2NjI7tehUCikUun58+fXr18/ceJEKysrk2Frx8vAOxCAAAQgAAEIQAACEIAABCAAAQhAAAIQgAAEOhNgt+Cgnm/r7BS9+D4CaGNMkUjk4+MzbNiwwYMHe3t7+/j4/Pvf/w4ICAgODl62bNm6dev27t0rFoszMjIePHhQX19PGiKTB016RCgUipKSkl9//TU8PHz48OF/VRYbnwOvIQABCEAAAhCAAAQgAAEIQAACEIAABCAAAQj0VIDdRoPq6bZ169aenv8ZjkMA3Y5FKqCPHj1aUFDw4MGDe/fu5ebmSiSSu3fvFhYWlpeX19TU1NbW1tfXNzQ0qFQqpjcxRVGkP0d9fX12dvauXbveeeedgQMH2traWlhYoPC5nRh7EIAABCAAAQhAAAIQgAAEIAABCEAAAhCAQG8IbN26NSMjg+rRJpPJ/p70mcPhIIBuf9pWVlZjxoy5du1aS0uLRqNpbm5uampSqVRNTU3kHZ1ORx4o0w5aq9U+ffr0/v37ycnJO3bsWLJkSUBAwNChQx0cHJA7t8tiDwIQgAAEIAABCEAAAhCAAAQgAAEIQAACEHgtBRBAtz92R0fHL7744vbt23V1dUqlsrm5mdQ4a7VatVrd3NysVCprampKS0vv3Llz5cqVc+fOHT58ePv27StWrAgKCvLx8XFwcLCwsGifEXsQgAAEIAABCEAAAhCAAAQgAAEIQAACEIAABF5jAQTQrQ+fx+OJRKIff/zxOL2dOnXq/PnzycnJF+ktJSXl/PnzJ0+ePHz48M6dO9esWfPhhx/OmDFj2LBh9vb2fD4f9c6v8V8i3DoEIAABCEAAAhCAAAQgAAEIQAACEIAABCBgWgABdKuLUCj09fVNSUnx9/fv16+fnZ2dk5PTgAED3OjNxcXF0dHRzs5OIBDweDzEzaa/TXgXAhCAAAQgAAEIQAACEIAABCAAAQhAAAIQgABLAAF0K4a7u3tISMinn37q5ubGpTcevfHpjeyT91l62IUABCAAAQhAAAIQgAAEIAABCEAAAhCAAAQgAIFOBRBAt9L4+PisWLFi2LBhQqGwUy18AAEIQAACEIAABCAAAQhAAAIQgAAEIAABCEAAAt0WQACtp7Kysho9evT7778vFArRXqPbXx4MhAAEIAABCEAAAhCAAAQgAAEIQAACEIAABCBgTgABtF7H2dn5jTfeGD16NI/HM6eFzyAAAQhAAAIQgAAEIAABCEAAAhCAAAQgAAEIQKDbAgig9VQikWjYsGFIn7v9tcFACEAAAhCAAAQgAAEIQAACEIAABCAAAQhAAAJdCyCA7toIIyAAAQhAAAIQgAAEIAABCEAAAhCAAAQgAAEIQKAHAgige4CGQyAAAQhAAAIQgAAEIAABCEAAAhCAAAQgAAEIQKBrAQTQXRthBAQgAAEIQAACEIAABCAAAQhAAAIQgAAEIAABCPRAAAF0D9BwCAQgAAEIQAACEIAABCAAAQhAAAIQgAAEIAABCHQtgAC6ayOMgAAEIAABCEAAAhCAAAQgAAEIQAACEIAABCAAgR4IIIDuARoOgQAEIAABCEAAAhCAAAQgAAEIQAACEIAABCAAga4FEEB3bYQREIAABCAAAQhAAAIQgAAEIAABCEAAAhCAAAQg0AMBBNA9QMMhEIAABCAAAQhAAAIQgAAEIAABCEAAAhCAAAQg0LUAAuiujTACAhCAAAQgAAEIQAACEIAABCAAAQhAAAIQgAAEeiCAALoHaDgEAhCAAAQgAAEIQAACEIAABCAAAQhAAAIQgAAEuhZAAN21EUZAAAIQgAAEIAABCEAAAhCAAAQgAAEIQAACEIBADwQQQPcADYdAAAIQgAAEIAABCEAAAhCAAAQgAAEIQAACEIBA1wIIoLs2wggIQAACEIAABCAAAQhAAAIQgAAEIAABCEAAAhDogQAC6B6g4RAIQAACEIAABCAAAQhAAAIQgAAEIAABCEAAAhDoWgABdNdGGAEBCEAAAhCAAAQgAAEIQAACEIAABCAAAQhAAAI9EPifoWIK/0AAAhCAAAQgAAEIQAACEIAABCAAAQhAAAIQgAAEel0AATTydwhAAAIQgAAEIAABCEAAAhCAAAQgAAEIQAACEOgTAQTQfcLa6z8UYEIIQAACEIAABCAAAQhAAAIQgAAEIAABCEAAAv84gf95ExsEIACB11Vg3rx5PWhdhEMgAAEIQAACEIAABCAAAQhAAAJ9JGBtbe3s7Dxo0CB3bBDoPYFBgwY5OztbW1v30ffW/LT/D3w2f8Nwht0CAAAAAElFTkSuQmCC;" parent="1" vertex="1">
          <mxGeometry x="20" y="20" width="1060" height="45.82" as="geometry" />
        </mxCell>
        <mxCell id="Up7u5XpW_qCa6S5sLstG-3" value="" style="shape=image;verticalLabelPosition=bottom;labelBackgroundColor=default;verticalAlign=top;aspect=fixed;imageAspect=0;image=data:image/png,iVBORw0KGgoAAAANSUhEUgAAAawAAANtCAIAAABDgdjDAAAgAElEQVR4Aey97W8bWX7nm/f+Uxp5sy8D7BvjvrkB9s0AAU4MBEiAi8HOvdhazfYEq9ZgEEwzQhgF422b8HZrANMDa7RzpRkL3gbdERttylHYY9O4piaeMqDQ8VAWiq0uYbVlyIUhdIZAXZynqnOKpPigKj7VVzCaxWLVefic4oe/81DVf/TvtgP8AwEQAIHMEvijzNYcFQcBEACBf7cd/NF1/IEACIBAVgn8+Z//OSSY1cZHvUEABK5fhwRxFYAACGSaACSY6eZH5UEABCBBXAMgAAKZJgAJZrr5UXkQAAFIENcACIBApglAgpluflQeBEAAEsQ1AAIgkGkCkGCmmx+VBwEQYBK8hj8QAAEQyCoBSDCrLY96gwAIcAKQIC4EEACBTBOABDPd/Kg8CIAAJIhrAARAINMEIMFMNz8qDwIgAAniGgABEMg0AUgw082PyoMACECCuAZAAAQyTQASzHTzo/IgAAKQIK4BEACBTBOABDPd/Kg8CIAAJIhrAARAINMEIMFMNz8qDwIgAAniGgABEMg0gQlK8I//9Dv/5weZho3KgwAIDEfgT/7sO38y3JFXP2pSEvz3P37ybRD84dsnuYlV7epwkAIIgMAUCHznvz17FwTv/mX9OxPJfCIS/LP137wL1N+733w6mapNhB8yAQEQSJSAMKDQxWQ8mLoEP/jPD5ttJUD52m7ufB8d40SvHCQGAotAQDfgxDyYrgT/JPfk2z8oA/6v3+y+iALCb//pxwl1jD96wlJ99+S/9rwIfnbI8j/8Wc8PsRMEQGBmCOgGfHfUDGWRdjyYogS/82nUCW47ux/98bVr1z746NG3YVyYUN0gwZm5ilEQEBiXgGFAPhqoCyQhV/QuXEoS/OD7O1EnuP1q66+YAcXfB3/1Pw5DD7b/7eH3o4/UIaO9QoKj8cLRIDBzBP6Pnx2qLqPuO92Dh/evp1TsNCT4Jz/+p29VHzh4V7vVPQ+iWz/49smP//1VagcJXoUezgWBmSAgnKAbUBRLeLCnRpIqd+IS/M76v4R9+fa3jz7qNwHywQ93tY7xb9b/bOwajSzBD/7y7x++etcOf3mc32x9qI9P8gTfPfnoz27t/quqy7vmk//2nWvXPvj+//jNt++54f/Q/vbX61qEyzr7f1XYPfxfKsxtvzss3zIPGLuOOBEEFp9Av7WB/fYnRSRRCf7x9x/+m1JA0B68FObP1n8jhBIEQbv58D/3E+bllR1Ngh/8UM3VvPv28NXhoSMK3D68HwasPMH37961g+AP75rRMc1nNT4Fc3R4+K/fCoe2f/1jVbgPPvonacx3R4eHrw6lK799wgdD1VF4BQEQmDECyUlQLIcOu8HDTcj+7F+jE8ZdSi0kqKXTYzOcHRYHG2t0/iTHp5eDb3f/o2gclaCzq8YrP7j1Qrjy3ZMfKlP/x13W53/35CN+0gd/94wd8V4Pab9zS0jzn8QhM9byKA4IgAAnkIwEP/hLfTm0kFDonctIGxJk5737zU//SmnmshO1z5Sz2u32+x7/eGlUYYSqvt39v7Xzr1279uNfM4O9k7aSCf6moB10n6+0+bctrWziMJnyrX9h+fzmU+3za9eu/TFfoPP+2d9rKWETBEBgpggkI0G9Sspr0g7qrTBj+F+5rE99qiSlJzTstpDRUOsE/3SnqclOy0DI8V/FakKV4IfaAVyCypJivy5BsR28+zfWEdb+Nd+xkcdvd/8vLSlsggAIzBKBbElQDNuZLuOt8V95j9iQoOnl4SQYOt7c6CfoWboQUBYQyCqByUmQR0kiMuJjafwGjxmOBMeQYPPhf8jqdYR6g8DcEpiYBEU0JLuN4V1uE5bgtRHGBEeS4AeiIs3tPzWuhP+w1QyC9vtn68ZevAEBEOhBoN9SmH77eyQx1q6MSfCasPAws8MjSfDaB4XfsLmV9uHWX4ZzI9/52b/yff9yK9w1VhvhJBBYfAKLtFj6Wiy4U29nIxK8dq3fOkFtXbc+46EuvgFjgteuXfvTv/91r3WC7cOfjb8OXOWOVxBYbAILdtucsp6MpNTbWZEgu7HjL9mtIPKOkT+03/W8YyS2znGwBLvuGPnDu29fbH3/SncELvaFj9qBQERAv01Y3Dxn7Ol192108tW20usOt7/li0XkjRPyUVfhmKBcTaI+NfueV6sSzgYBEJhHAob19EdppWnAa9eupSdBc5VIlwTNjyHBebxoUWYQSJiA7kGhiFQfnSBKDwkm3IpIDgRA4CoEdA9OwICpRIJXqT/OBQEQAAHhwckYEBLE9QYCIDCLBNJeG6jXOfnusJ46tkEABEBgxglAgjPeQCgeCIBAugQgwXT5InUQAIEZJwAJzngDoXggAALpEoAE0+WL1EEABGacACQ44w2E4oEACKRLABJMly9SBwEQmHECkOCMNxCKBwIgkC4BSDBdvkgdBEBgxglAgjPeQCgeCIBAugQgwXT5InUQAIEZJwAJzngDoXggAALpEoAE0+WL1EEABGacACQ44w2E4oEACKRLABJMly9SBwEQmHECkOCMNxCKBwIgkC4BJsHr+AMBEACBrBKABLPa8qg3CIAAJwAJ4kIAARDINAFIMNPNj8qDAAhAgrgGQAAEMk0AEsx086PyIAACkCCuARAAgUwTgAQz3fyoPAiAACSIawAEQCDTBCDBTDc/Kg8CIAAJ4hoAARDINAFIMNPNj8qDAAjMhARvfPLpp/8P2gIEQAAEpkBg+hK8sV4/67z9Ygp1R5YgAAIgcH3KEuQGDIIAEsS1CAIgMB0C05SgMiAkOJ22R64gAALXr08vEtQMCAniUgQBEJgagcQiwe+u/fyrg9ffvLu46ATR38X7s7ev66W7H33PqKFpwEiC3/3hR981DsQbEAABEEiXQAISvPHJV2/fRd7rs3VxdvjVLa7CLgNGEvzibRB03r/98taNdGuN1EEABEBAEri6BFefnWne61y8P3n79nfy39n7C+2z4O0/slw/PXiv7+TbcmKESZD9nT37uzFa6Lu3SvW3p+/DUPTi3Tevvrw1Vmj53Vtfvn1VGqUM/73OaoUJnlGY4VgQmAUCV5fgp/zbHwTBxeudD3tEcN/76OGhVOHQEnxf/+8jwvnhw9dCrZ2L96dcwSfShhenzz79i9FSu/X/caFxZQ97JiQ4LCkcBwKzRSBBCfY1Vxj6pSXBv/7iLdfs+1fbq7rvvne3zqPUi9998eEo2EWBRWmHPQ8SHJYUjgOB2SKwABK8sf2aKfDi7RcfdbP94VffsImai1f3uj/ruwcS7IsGH4DAwhGYfwn+hRhIPHu21rtx7v72/cXv378urYYf3/jb7Wdvo6HD4OL921oYQoa9ezE6Kccxr1+/sfrLZ2/fRUOcF+/ePvvlatT9744Ev3fri99+Ew6Kxo8XpfmhVpILNiNk+lcUJjbQ2GPndwtfvT5VI62d9+EcVFhlbIAACPQjMP8S/OVrpqt39Vv9qmjuv7EuxzAv1NChsN3F621utNUvfvv2Gz7ZLQ7YZyHkDdmj71ycvWUDjuIANgz6S6XBmAR/KHvowcX7b3739u2JNNT7g0/VCdevh8f8/ixM84JrVvXEe/ju+vX4zo/+UQwGBKLAsmwXb7/4oVlzvAMBEOhFYCYkePE72ZNVs8N9hxe7q/Dhk2+YxWLRUvdxcs+HXzm86/yPWtf5h/uxJMxw7Pr1v/6KHWBq5SOR7+/UTc+GBD8UFXn/ajvM5sbffsVdFXrzxkNu7/cHd9X89Y1b/8wLEoThZ9x3vBLmTlH4ztmz9dCuN249+Ya59O1oI6F9meEDEFhoAtOXoG6KMSQoY7RhJfjw9e8vgvf1T41GNbWiFvGocOz69f/5+uIieH9gnmRY7/p1/e1fc6t2Xj/UZ2muX//wsZQt05UQ6+9f/dwoyT+I9UYq63jB+LHGztVfs6mfs9o/GMnIaPGb/b82d+MdCIBAF4HpSvDi7Nda9/D69TEkeOPLWBjXVcVeO278l79ZLfz8iy/364dvz2RXNfJoPBKUKdz48Mertza/+OpJ/fXbs/fixpjwJF2C91+JQCyes5CjULDoxYenq0PNrA3fhYfoKxIFMdm1V8sz3/7u7dnvWXz8+pfqJLyCAAj0ITBFCV68/VKbWODlG0OC14Vxhh8T7L6/5f17brRISKaJ2JjgrS/fSuuJEcQgeP+OuzM8SZfgP/I13+FHEXpePyFBfszFb+9GH/ItM+thJagKFX9VEWUsE7wFARCICExLgu9f/b/hcFlUmnEkeH37NQvK+s4O39h5fXHx/puDh3/DOqFivuLi7PDZF5u3Vv9O3Kocd41pousflsRo3tnr2hc/L6yu/pAP4unWu252hycdCV68uh8xxBYIgMBIBKYgwVu/fl2PRvGN0o4lwet3f8t6n2p610jw+nU5yiZHzUSM9vphOInAjpaLbKLILSZBUarXO8ZJN2Lhnu7EocYE+bjhUGOC5tCeSFzNBImidkWUd1/9Pgguvtn/SYwG3oIACMQJTEGC8SJo78eToIrvgq47Rm7tO3zJye9f/VzMUQhzne5HUehfrIpZW32CWdw2980TeZuJKNXZP0cnqale7SRdgteHmR1Wx2izw6tfysUuqht7Q2T9zZMw64+2D8UQplL2mphKeV+/pyaZwwU9Z89i0yUaaWyCAAhIAglK8OLtq1f68wtYdPb792e/q9flV1us/Ljx4frDZ799G3u2Anvm1m+fvZLPYhhhiYyox41P9vmqkCAIn+AQPknh4u1Xf6uCOHWDXcCX5r19e8aftvD+PZtG0DIt8UG9C7Z8b/+e6g4HciHe21Mu1vd8HXQ40WxIUFsDGFsn+Pph6LNoneD7cJ3ghblO8PqNX/K7YWTWfOl15+yMUVISvH79Hx7LqhvrBDtn/cJtXPsgAAI6gQQlGB+V735/dvjsrZyK7f5Q36P5SC/s5dt/sbpdM9x68f7s9T//3Lib+Pr1G5/Ebq7Y//nfyrXQ3zxWdxj/xa19VdCzX6/yiZHXahI5CGSyYiTxm6/EMpSYBK9fv/69W18dRqoffMfI789e/c/Vr5h+9TE+406V96evHv6tCA8jCV6/fl3cMSIfn9O5eP/22Xbo/cuh4VMQyDyBq0vwVl1/mGDn4uLdN/0epaV7LmCxn3ro1sl7EQGpA8aS4CK05Q2+lvt9vbAIlUEdQGAuCFxdgtc//WfeHXv39tnOP3xoLg9mq0v+yz88rBnrS96/ffbwJ90P3brx4U8eikDx4mTfXJc8FyRHLSSb1L54/2pbI/bde3wJ4O9fxRfOjJo2jgcBEBiaQAISHCqv7919dnIRXHzzLBq/H+q8xT3oxs9/y4cGOioiFkONwfvXv1S98sWtPGoGArNDYFISnJ0az1BJvnvry9fRqCEby6t/UQgneWeooCgKCCwwAUhwgRsXVQMBEBhMABIczAhHgAAILDABSHCBGxdVAwEQGEwAEhzMCEeAAAgsMAFIcIEbF1UDARAYTAASHMwIR4AACCwwAUhwgRsXVQMBEBhMABIczAhHgAAILDABSHCBGxdVAwEQGEwAEhzMCEeAAAgsMAFIcIEbF1UDARAYTAASHMwIR4AACCwwAUhwgRsXVQMBEBhMABIczAhHgAAILDABSHCBGxdVAwEQGEwAEhzMCEeAAAgsMAFIcIEbF1UDARAYTIBJ8Af4AwEQAIGsEmASJPgDARAAgawSgASz2vKoNwiAACcACeJCAAEQyDQBSDDTzY/KgwAIQIK4BkAABDJNABLMdPOj8iAAApAgrgEQAIFME4AEM938qDwIgAAkiGsABEAg0wQgwUw3PyoPAiAACeIaAAEQyDQBSDDTzY/KgwAIQIK4BkAABDJNABLMdPOj8iAAApAgrgEQAIFME0hOgku5m3cKhb7/buaWCCFW7pNLjikU1pYz3RqoPAiAwMQJJCfB+7YfXPLn2/cJIRuXHxS0KhMngAxBAAQyTQASzHTzo/IgAAIpSPCkpneKayciPIxFgn7jc61f/NSVMSQiQVySIAACkyWQggRNkVVavSXIe8eqrnvOFSTYp4tNqd+yK/dSGGTkpfXtDVX6Hq+81sL7PT6d0i4BysGIw5T4I9sZJTA1CSYXCSoJUkrb0T9p1YC6T4tWsvAhwWR5IjUQmCqBaUlQOSr2akaRw5EREuwKu5ZyOwceZenT5qNENQgJDtcwOAoE5oLA4kqQ4bdklOjV1xNsDUgwQZhICgTY0rmb+ZXLQSznP8klGstE2U1YgmmsE+wTCYo6LpWbnSAIjDjRul2qt3zK9vM/6jsHpQJbxqj+lgqlA8fnYSQ7InaAkmDhke2qZUH+WbN6N2ojOSa4Waweq4x8r7lfjI9QrhQrh26YET136o8KUSq8OANKy1cm+XapdOixonao3yj9SJx4t9o8U+U7d+qfl/j6pGhMMJZyz9wVEbyCQFoErNtVhwbBub3V14PLW+zapc5+/NuRSJkmLMFEyhxL5FIJEiJmZtynOXGatSmXKtIzxzl2nFOpCXpUUvbJV1rcf77HDjh2fa5LelyRSXAJBpQfc+46x45SoVtbk2XjmVL/nB3jnzpOyxPO9Q93VC6ErFVY23PJulpJfHsjPGZwabkEaZsGAfVajnPmO1+zYsZO9No8I/YfJUGVu29woM5jWcsYZbwFgXQIbNjn6uLs7UFhQHGMb28mX4oUJHjZEpmJR4JqfbaazM1V2ZId6uzlI5ZrNb5CR9nhHrfkaS06Ymmn0Q5o26mIEEtI0PhdyvNkA+9FQSQrzBtQp3pbCU1Khza2xSE5cYzfKIUZyZ/EaBBziNLKNeq08UBlxJIXPwx6NZXZlQSLL5n93adh5sR60KAdSo9lLSM+2AKBVAmo32PmubgHdQPq13OSBUpBgkrr5mtsnaD5YfguwYkRRUkFimJFS7nZpoEyonmIkqDQit/oG5wLCZ7WjJBJ9ZFFmjL85EGZyoXkvmaypY0dtmeVm7fTLOvdcCKPCVoVrrShS9sWiaqsRBViJVyt6q6XWA634j10lQZeQWByBHp7cBIGJIRkTYKyWa3czcK9ncp+zX7jeLJDrCRIovicnrtNu7rzU3NEVkjwqGRcImLnsVyExyXo2/eMQ4iIMb06CxcfNFhXuFv6Qo6mpi8rrfDdSVWPA619pjszDUJIoc6GDVU1ZQjJhxFPm/b+zrpZS7PoeAcCKROIe3BCBkxUgkM9QEHEH+wbmvQ6QWPqQ2suS3RU3X1pCetu1QnHIEQE6vt81E/ZgRCyok1oiGM6vrOv1huaQZ/MS0hQSY1LUEtQHlRhi8KFnMzjtQJrxxAyuLTCZSpfkY4Z/EZpx0q1fK/q8FHLMBAPzh19eic6E1sgMAECugfDecvY4FUKxUguEhyqcJEEk75jpI8E5eywV7/Dy7cq5iKo96ZeeVgs3MnzzqAoVbezlvO/KNfspiulqdYbDivBrkhQ76UOEwkOU9peEuwTCeZqp1okGLbXSn5rt2a/kfM/AW2WzB56eCA2QCB1AroH2Y9zWuOAekWSk+CIkeBEJNi1TlDEX0dlvfNIlnjwpfqJ689dSoNwNlnAWj9gPUnZwRxWgoGzZ+ST47dI08MtluYwY4JDlJb0kqDcGVsdKX8PhOvXa6eUdtzaqn4xrPP+cp+fE/1AbINAegQiD07CgIl2h8W3MepZxbZiEyPmN01823uOkQ1mrTp/7FFd2t/KetkWd4z49qaSkcjoTJ/5LVTFghglQbLNR+uMiZHl0hs2gueKiY6hJRi0m2W1aEbN/Hr1z0Qhh5gdHqa0PSVIhM70WwbzpYYY+5QB79YhX76jT4yslJpsJY1bNcyoIcUmCEyGAPPghAy4SBIMAv3eYbH+ToTT+gJL2cEMgjZfAyiX7/k++/KHXs5Vjvn5Hb7y7ljNnJzbG6KfOLQE2VJCkYhajei9jNYA9l0neFSW61aGKW1vCRJyvyZ+AQK+kpGvE6R8aaPq9XclLpZD6qsUJ3PBIxcQmC6B5LrDYSR42TrB9MYEY4Enu83De1Pb+Sy+AsTS76Po8GNuy16zDPRYg+Tjd4zYlWK4nH1YCfr2NptgESXrfT/GSrH6xrvkjpHBpe0nQUKMG0L4/SpV9kQfJUFCyJpx5ww9d+zHXfe0TPfyRO4gkD6BFCRozlSKFXMqzkpDgulDQg4gAAKLSyAFCQ4XCSa3RGZxGwc1AwEQSJ9AChLs6pjyHbGJkd4H9Vg8nD4C5AACIJBlApBgllsfdQcBEEjwtrmh1gmm8QAFtCIIgAAIjE8guUhw/DLgTBAAARCYGgFIcGrokTEIgMAsEIAEZ6EVUAYQAIGpEYAEp4YeGYMACMwCAUhwFloBZQABEJgaAUhwauiRMQiAwCwQgARnoRVQBhAAgakRgASnhh4ZgwAIzAIBSHAWWgFlAAEQmBoBSHBq6JExCIDALBCABGehFVAGEACBqRGABKeGHhmDAAjMAgFIcBZaAWUAARCYGgFIcGrokTEIgMAsEIAEZ6EVUAYQAIGpEYAEp4YeGYMACMwCASbBH+APBEAABLJKAJHgLPwUoQwgAAJTIwAJTg09MgYBEJgFApDgLLQCygACIDA1ApDg1NAjYxAAgVkgAAnOQiugDCAAAlMjAAlODT0yBgEQmAUCkOAstALKAAIgMDUCkODU0CNjEACBWSAACc5CK6AMIAACUyMACU4NPTIGARCYBQKQ4Cy0AsoAAiAwNQKQ4NTQI2MQAIFZIAAJzkIroAwgAAJTIwAJTg09MgYBEJgFAhOQ4HL+zlZ5v1pV/8q/KORXZqHuKAMIgAAIkBQluHyvYrf8oN/fuWM/Li6jCUAABEBgqgTSkeBKsXrcX3+6Fn2neg8mnOolgMxBINsEkpegtVn3qOa5c8fe3yl+krM4aCt3s/iwakaI1HuxIT7Ndlug9iAAAlMgkLAErU07igB9p7op3Ue+bNI2Zf9O60VeTSu3oUeLvg0PTqH5kSUIgECiElyrOCoGpCe14pKGd8+RwaFvb0S7reJTNzzD2ctHn4ywtaF5V4tA1aazx9O6z49qVUZIWB1q3d6pHbq+KmjQof5po/aggOhVEcIrCMwxgQQlmKscS0+YBrRymxX7VCmk4zUeb+QiP2oepE5ldQyUSoKUR5oi3tT+2/ySpzmmBPXi+V7LcY4d91xV87S+EVVkjJLjFBAAgekTSE6C2w3lBqeyFlYsH5pRRWb81bM1feQrLXXq4VZ45tAbQoK+fX/oM4Y+ML/HQ9uO13hkxH3W7ZJ9xst8rge2Q6eLA0EABGaGQFIStMpH0nLu06hXu/7CE3v94+rWnXx+rbC174hBQ6r7bq3miuM6zfLIsVVqEpSl8u3NXh3fpQ37nBXae7E+M62JgoDAXBKwcjcHrR1ezqvJ1cRrmJQEK3LMz7RYpcXd1m7saAUvCV2ag4OhQ53H2qFDbQ4nwVh3mI9ROntW4cuGp6Zy/LNm9W7kO9nNPipHu8zyWA948NtuyPCVZ+HbG/nPbVekyUYP7dJtI4Hle9XmmcqyQ1mmWCRkgsW7TBGwbldZh+vc3up7D8XyFhvSp86+0SFLilJCEhQ6CILg2Jh5kBLsuNWog0ys3M3CnULhTt5YH/hYWpQawhymmuNL0Gsx+PTcdY4dr8193QnHJQt1HsU2H11Shp0GO0v1xIUET3io2/b46CFPk3o11VWXs+dMjmx40RF96jCFS7LCRyCwmARkj4p9VXp7UBiQf5UC395MnkIyErT2ZXfWe1HQy5h7rKaLqdd8vlNcM7ynH0nuCOcEwUnVCJyMg3q+kRGbgBT7r5waJoT0igTZb0s0JZ2vnrCzVRVKzY4muJ45E0ucYkxAB4HfKKkRAUsW7qSa4ylUjoMgoI0HURXzT92gQ72XYwyG9i4T9oLAnBHQVpV0eVA3oP5tTbKKyUgw9FAkHVlIa+NFuAiGC4r6zkF5vUfcqzrURjd5mKqqzHvNDsup4X4S9OqGs3kfWeUvyuMYkW1XcUSoa0jQHBAgZItHi179DjtZHO+mE9V3lQ47QGBOCPT24CQMSEhC9w4rDwVdEmRtYOU2KrYTDr0xF1KvHp9tuKIEVZ+0X6P3jASPSsbhPSQo5WUcFr3pFQl2LUUUY6BirFMLjX2v1ajvbg0aD44ywxYILDKBuAcnZMDEJNivOxxvs5X1sq0Cw3A+QRx01e7wOBJUQZ8qpiHBUcYExTiFmhhRyclX8Quhfh6swiM1baK67vTULmljprHT8RYEskJA9yAbjBJ/afWCQ6rJdIdJ74mR5Zy6ay7MjxCSfy7WzdDGA233NCZGLpUgWT/g5ew/O0zE0sjQ5iLYNKeGWBeYjQMGsQkWK7e+87jeaHlUNLZXx0Ib7WrAZlYJ6B5k35vUDZhYJEiI6swaI2JFsZIuaFWiiQBCwrBRWw0TLTPUdg55HYhIK/FIkJDViiPmRuI9d16w7nWCQoKhE2XxxZigW2M3w5QbbRqYC4bIUpnPwAwYfBySBQ4DgbknEHlwEgZMUIKRxfTF0hsv5cpozy6vs6hwOf+LqlwtHbjV8Ca5CSyW7jUmeHkkyILWYe4YCVd3iyzYkpnwYRBqXKNV4bPDOTGbrE+MWLf5QvG4Ouf+SkYFQGB8AsyDEzJgghIksm/IA9jBt80ZUe5EbpsbS4KEWIUvm3JlM/Xd40vvHRZZUMrup9PXHlLtPkIlSnGAc+rz7vDk2nv86xJngsCCEkhoTJDR0R6g0KoWwviIxB6g4LuHtZ3oJgr9CQXhQuWRYKfWHValYE/9GuYpMtKzVTb1IZde+96batFcD2TdZXeMyKHAIPDPmnggjSKNVxCYAoEEJUhI1JkPzAfJEMInXtlAp9EF1QxoxIZTAJFAlrFgM4EUkQQIgEDqBBKVICGZfqgqJJj65YoMQCB5AglLkC2Nzuzj9SHB5K9PpAgCqRNIXoKsyCtb9fApqmLBY7//Ure2MM9QgddWizoAACAASURBVARTv1yRAQgkTyAdCfJy4n+5mXxzIUUQAIGkCaQoQVVU/M/XFQm8ggAIzB6BCUhw9iqNEoEACICAIgAJKhJ4BQEQyCQBSDCTzY5KgwAIKAKQoCKBVxAAgUwSgAQz2eyoNAiAgCIACSoSeAUBEMgkAUgwk82OSoMACCgCkKAigVcQAIFMEoAEM9nsqDQIgIAiAAkqEngFARDIJAFIMJPNjkqDAAgoApCgIoFXEACBTBKABDPZ7Kg0CICAIgAJKhJ4BQEQyCQBSDCTzY5KgwAIKAJMgj/AHwiAAAhklQAiQfVzgFcQAIFMEoAEM9nsqDQIgIAiAAkqEngFARDIJAFIMJPNjkqDAAgoApCgIoFXEACBTBKABDPZ7Kg0CICAIgAJKhJ4BQEQyCQBSDCTzY5KgwAIKAKQoCKBVxAAgUwSgAQz2eyoNAiAgCIACSoSeAUBEMgkAUgwk82OSoMACCgCkKAigVcQAIFMEoAEM9nsqDQIgIAiMBkJrpef16r71ejf7kZuSRUBryAAAiAwPQLpSnB9z/HbvvN0I7/nBLE/z96AB6fX8MgZBEBAEEhTgp/VPSk+376fr53GLBh4L9bRDCAAAiAwXQLpSTBfPdGs59XX79u+toNvurU1q/DIdhuVH00XA3IHARDIKoG0JGg9alJTee7Twka3BjvsIO9FIav8UW8QAIEpE0hHgks7jbapwIA2H1lkqRRXIzvKt+9fmcLKevnA8fxIvNT3ms93CskPO7LQtfl8Y5QSC/k7lVHOGXwsH2b17ctKUmnpeM1iiMC8FRXKul2y39QuS25wmfgRaxWH9hjrsG7v1A5dvz2BNhqyoAMOW75XsY+1a4r63rFdubc84LRxPrZKRzQ4xyj5OOyufk4aErR6RHwn1TwvbO6xE30JhCfbjZ0r1oN/66R0KaVtSsM8/GZ57Yqpm6c/ZjM8l6vHPIEQYtqn6+MxdyQswcoYFetV8lzlmDJAxs+PtfHClW1Cfa/lOMeOc+pT3g8IqFNJto16FWvEffnSoRrQpr57zArsqdEc/01ZXMwjpnnp4WtVtxP4LxP4Dbo0G3zYg0AaEiQspjgNPcT6u/XPWN5d+7m4WhWrR8GG32WVj1g69KRWXInOsnI79TNWBnpUulr6UZpsawj1mCek9m7kklzu4mQkKIZBmrsG8vUXXCjUsx8VjA+WCuUjrpbzSwPa1BD2SVj9ilO3ZsZ9y/eqDi8vPa7k+pw89u71Ay/8poydCE4cg0AqEuTl4DMe3ITy9+1HxfLLpnuuy5HJy316xcuJf3sDt2qEHrwIazX25bt6pKlzHVk9+smJbo9ckglIcJ0tCGg3tvSKrtVc1s6+vWkIUB3CTwmCmDfVp1N4tR40+I9nn/hUdjv48E6ypVutMlBH5Z6Yks1q1lKzcjfzWgTTq3jL+U9yKZFJT4K8IkuFncc7XQthlvP3dioHDefMZ9+Ne72qPMK+UpP1qtza6sBzelogvtO6Xaq3VE8tCOi5U1fxCx9i49Er/0/UKV4pVt+Yg0dvqlpYambBB+N8e2N5u+aonwSWy+exPpZVeFQPD2AhrVYSVlUlweK+I8dCO75n5EuGHRPkSekVe8qiku5ef47P+Mu4vgfubaYP78BocFH5S77b1p5Dqe/sF2WCvDDOfrHW4r+XHd99Kj4ygVDfOSjFx3yXCqUDRaObGBFAnMpSoXzo+aIzLqBFv6CWaOVYLfTK5p9yq59U5a+3KPCepTUE9Y/1C4AQslzcb4Yd6oDGW4qnL/o0bnXwlawXZ+63rdtVNkZ2bm/19eDyFptTpc6+2ZNIqOqJS3A5/4tyzW42Ho864bucG1P0fFCZfWWd2sP1S0etTRlJguZONbzon8lxK64G6jxmF/zWc8fhXezg3HWOHVlHdYrY6bQ8OdTl1ZUMzCyEBE94v8r3nGPHPRf+0SeIVI+sQ8UImjpGC0D4d4+ecwHy8nhiMspv7Kiv9LAS3K45xx5TToePfx1WCnf4Gs9YTLfKY7rTWr/QvcTGJfRaEEKKNq9d89HQF6yoV5uKwrjnvr3NhlKkTIPAP+UjdKKy+pL7pQ2Rl6yFagjv5UYYQXAgntOiQYeydNQxQSvs3orfVK9+p3+BBYfAqQjOvMBeiw92Gw3RLEmdqcKHw4ui8F2DANY+02vGFkuoVgv6eVAYUH1HNvu3y7ifJCHBpdxNLj6jq9v/q9Jd1OV7lcYpH03v/myYPUsbdW0Ikp67zmG9/It8lxBNGcmUjZ3Fl2zIx30aBWWsc9Sh9FitZORXfBQDErJ1yOzh29E3jcjJ8TDINbIgar2kdor6khyVZKFEz8icMZAByLGaz+UlMX8e8xUePdFD2R8dVoIs19iYoAj6aIMJSP4V+NCe+3U/B4olAbFJcDlYMUScrrKR9XJr2myJ7KK29WmufKnBGku1hbUjerFH2qzFWqnBFBx5WUR5xlQMn5Fgg3HCesL+QawWqmzyVTSoSlY1hPu0qGwbawgOoR39OBHC7x2gnv0LM2WR+yjfHfP8+XwXhhE9PKgbkDp70RczwapeXYJWblOOFkf9KRZTNNUX+tLSrhSrx3yomZ98hXtIrNymuaCBlYG6dknDZspIlsvYKa/uw60ugapaxCVYZP7tqKBAHTXYPjE+sQUrXzZp949C7Bjx3Qs7ZSJrYU81DDq4GNESmZgESe5rFpXQaOqeD951mmUVZqq6qlfxBVZOUnuFBONOEZyNCyY8UdTLFAGPMbvGDZeUXFhmPILrKp7FUwtrISQYC7UMSgJyWBhVDfNVXiZyaZcocBT482NFQ8hW5uXsuNXbSpJmcto7ceRw3x3ttLnf7O3BSRiQEHJ1CQr+cnhbu6x9e2Dg+jcVR4zLhKd13Kr2+z9e01q5m1u79capdCttVZQHDd+pxM2dKkzj3aWmvb+zHuuk8yu+x3dkJV+4s1Xer9YPHRURq0ghtkRGZOHVjfGCmOBk4azcJ4Xiw0r1qd1sqTGsUFuiJC/VUJo8RXQ/ZVxjfL17FiNMLR4JErJUZoOtoaxFCcNYVeGLXntXQUgwPm1VfOGylUziHx/6CyO6cKwzSlmWPPBP+BgFX7DCFtkcu3xcj1dW5C6689EBjnPCLwNFW0gw1jc3KN3jC/rDWmuF0DZ7SLDrkijwAQXRG+DLhvhFTn2vTzdFJG9ejVqWi78Z9+CEDJicBD/vsQg69nvbqxVVNzCUYBCEXblex4+2Tw64BmGfrucVFt/JlkGo+QpZrnOnelf9hndLcC22HigIqO+zQZ9LJRjZh1cqbhA+ym7+Qvjn/PscnshL4uzFmehfaX07vlwxniO3lflV1uMv3usPScYzZe/jCYpjhJRp40GvU8Q+cWKYdTdhJUHtMtE3OWeRiL5b31aJm0Bkkcydw48JKrMP0RBkqVCyhbJVseLdFFGY+NXYn9oifqJ7MLr40+oFhwSTiQRF06nmVa8nVWWOMLuuje57S9T12nVo7x1FMVDVZ52NvKakKXpeYT13ErKS39qt2W/UhUubJW0UXCujHNb1T+za7lbhzk3xiDDze2Vm0VMW5k65pJx6zYPKzr1CYY33zs1jZMQUjwRFXnKufJRi9JAg4bO9fGJ3i90CpFW7R2PEiqeOEGOml/22iRPDxPtK8NIFACIRsxOtihC9mkDkfnOnXHZ6yeywGCgIwoEIUeB4QxghuSqBlfupWBchot/u+2rMS0WdlqFX3YNMJKkbMLFI0NptKvPx11Z1h63buHRoYymX4zPisXtIRl3bLAZ92Pezx1iVvKCdx+IqMgQhL6xwpo+9X6+dUtqJfdlET1+FdbGvqPjuxcaDZOSiThnQD+UFMQ3Cv5bxITBZUzMSDGJLzUV11Kyu+fU2v2Bmjl0TIwIPd1+nWf68x9oXCTB8EVmHLgv3y4cJ9VsnqELI8MQYYZaOXLYSn5Ph42603SgTQsT4YBBfX8KE1aGUH8Jmf4z7CGUR4zsFGXNWKqwNkd/S+DR95ERxqD44u9ugVB9d5VUSX5mwNVVZ2H07akg3yjRTW5EHJ2HAxCRIiD4mqOb1VnJ9n5y6tFE/o6orFz1vhp7W+68V6nMhqFiSntnln2oDeCvrZZsv+wiDuPC7FE3+5ktvxNChHLmXU736xMhKqcn6turbxW+bCwfaZR+wreJEVsZwLOOqEvSeq8FMdrMNX0sVBEH4teGyCALa3FWHLRWqfHY4nF8yv95DSLDr68dvYwg8tsJNEejTDoT0nB1mR+f3+PKRjtfYja1hYtNZbGGANsvba0yQyOdxUEebW1AzsPKOILlSiraq0eLBLmGZQGRNunaqUZpL7hiJBprlgk0jZlENIcUuJ0n0iRGr8JzPO6l5fFkUMSI5KJ7t2wIL8wFruAkZMEEJkjAYDL+BfVuEGzAIAiXBvgcO+YF1t6ZuTGUzwmK4XUamHU+/USF8tg1lywBdtsSu43lsXbCavlxlN/+zvzZbweeo6YhoOYu4TAO2no6vE1SrnOSQvOg+U5+rVVXwcvvwWppxWRgd83KqxYk+XxJoRkwBv01aVkcMo2hL58yv9+XFkAv62Oq5w0o0aSOXjATxSKdX2/AxxJ7Df9oQp1igJ9jKTiFb41kNb1DrEQkSQnI7h+LnylwnqMdrqzt8QYxa7ajWANLjcGZsuEiQVW1564D/gjI78yvhknuHxa/RpQ2xwZdescT4IkdXDDrrhec8c3wZ9hCD6b3oY9+4BJIZE+S582DQtzfWKk1fTfyJ6b/TejSFqQzIRCMedhDOErad6k/GrcdSYed50/OpXKjMEvfdw9iqfdax0m/D8M8a5duiq6UkSAhZi98xYj8uaitm2K31MhcxVaof36F+iz1oRK7MkL/zl9uHV9mUICGWcYOBfCKOSEdFZFIWW+xGBaG/rpsoRpEgyX/ekN97Y25ULBiM9817txMfQ+w7/LdSrNjmk37a/Lksm1r8rt0J05WF0XZB1+0x7HjzjpHA95r7etsNL0GW2PJn5fowT5EZoiFUgyrrs8LXduIrZsSlqNq3q/7YkRKBBCVIrIe12uYyeyhQ7C8MXnQDxo7J6l2TKbVrcslyCRpavCRt/kOoRiQvOW6hPuoduo5eRdFrzuS9w6PDSvKMJCXIyhX2nnTHSQkWa9p9HfrnfLv/HalJ1hdpjUZgmS9+6hvcdSUmBhycvX53lXSdsAA7EpIgj/PxLZjCBZG0BOWQmak4FQnmP+c3Opkfynf4AZxC61+SJZu5ouIBqNSpjHBLP5+vUC1+SQaL81EiElxlNw5EQ8+LQ2cOapK0BImcszNEp30l8rtNOb6tH5H4o0/ngPyMF1EOBQZtt977EVj9y8/nZPX7r/sfuhCfJCBBPFl6mldC4hJkkw+5TwqFO9o/80FgoQfdp+KY7icdTJMI8gYBEMgUgTQkOBig8KBaQTL4eBwBAiAAAikRmI4ExQLaxpcpVQrJggAIgMCwBKYmwWELiONAAARAIE0CkGCadJE2CIDAzBOABGe+iVBAEACBNAlAgmnSRdogAAIzTwASnPkmQgFBAATSJAAJpkkXaYMACMw8AUhw5psIBQQBEEiTACSYJl2kDQIgMPMEIMGZbyIUEARAIE0CkGCadJE2CIDAzBOABGe+iVBAEACBNAlAgmnSRdogAAIzTwASnPkmQgFBAATSJAAJpkkXaYMACMw8ASbBH+APBEAABLJKAJHgzP9OoYAgAAJpEoAE06SLtEEABGaeACQ4802EAoIACKRJABJMky7SBgEQmHkCkODMNxEKCAIgkCYBSDBNukgbBEBg5glAgjPfRCggCIBAmgQgwTTpIm0QAIGZJwAJznwToYAgAAJpEoAE06SLtEEABGaeACQ4802EAoIACKRJABJMky7SBgEQmHkCkODMNxEKCAIgkCaBCUnQym1U33j+WbO6mbPSrA/SBgEQAIGRCKQuweV7FbvlB/qf79iPi8sjFRMHgwAIgEA6BNKT4PL6w5pzrsvP3O74zvOd9ZV0qoVUQQAEQGA4AilIcCm3sd/02qbyePSX744KO9R7U91AF3m41sJRIAACiRNIUoJWbqNy6NKOoT962qiY44BDHpZ4VZEgCIAACHQTSE6C9+qeaT/vTW3ndv9ZkKXCzvOmR41zgqNydxGxBwRAAATSI5CcBO/bcvpjtME+PnQYTpy0KmNWdWW9fOB4fuRU6nvN5zuFpTHTS/y0SisIAt++Hya8XNx3Go/Dt9gAARCYDoEUJDiGyPYcGRCOcS4hZK3ihPajlLYpDd/6zfLadMjGco1JsPiSid/Zix2FtyAAApMmME0J5nfrtU3eX76SBK3yEVMoPakVtblmK7dTP2MupEel/n3ySeMO89vgcTMkGALBBghMi8DUJJjfbbJYiHr1TYtcSYIVHka61e6e71qNDVO2GzvTots/X0iwPxt8kjkCVu5mXotgetV/Of9JWotIpiNBaUDeB/btrR9dSYKlJpuPdmurvdB171spsntX1BQ2u4nlXnzhdn671jxT45TUdw5K4dhirFcrko/t5G+d6t2aI9YJ+W7tHtGOEQKMZoScPRnMOnuxmHWr0Q6CTrPc7ffuemEPCMwnAet2lQ1nndtbfT24vMV6TtTZL8S+IYnUeAoSzO9FI3h+o5Qn5GqRoFU64kOAvlN7uB73WQxSOHrY9pxjxzkVpqPOHiuF+AuLR88c59gR89e0VRFHaC5TJxBdcGwnP4bSdhD4rnPs+uf2lnFMoXLouHwZuciitk3IoyaT4kk1F6VKyIMGDQI6i4GsXkpsg8BVCGzY4S0VvT0oDCiCBt/evEpevc+dtARDxbC5UmFAXYLHY80OL23UT8OpkICeu85hvfyLfJcQ87VThtI72Ah/T6y7NZcGQcepiEByteqyQ3x7W529JBupuctOGlqCQXBai8zadWJXd5gHfYFb1eLZEhvrpI3t3i2HvSCwIATC0CTojgd1AxrBSoJ1T02CSxu1g7JuAUJIbwNqEvTtjXHrZuU2K/axvkgmCDrUtXmkKRK9w1cyevV1Mw/hI/cpC8IKL9goIj3c0g+xdpu0Q72XbOfwEhQJhunETuySINk6ZB6Pzloqs25+V2nDBLEBAotDoLcHJ2FAQkgKEjyt5ZY25MzssexFXmZAQnJPefjFArCxJRhdD1bu5tZuvSG7ukHYk5WdbtERPmZdXfmPTyIHRyXmuGMWBzr9l+/FXCZyje2Ub824PXZMtwTJZ9LRBZ6oxcdJvRfiXVQ7bIHAYhKIe3BCBkxUgkTM0rLZ2NK2WjgdBJR7sG8MyNtzh419DbDPGA0vB1zDHmU4/SIyi/2XL1GMqao7054HxHbG3opEYjt7SJAUpAU/I4TkqicsLtR7x92FwR4QWCgCugfV1CWbD9GG7NOob3KRoPwOy/si8p831PRqQM+jOzmiccCoNkIIbLCufifaO+RWkXdgo16keZrhGi7By+cZkowEo5tDWJmGkCDJfc0iYu9gnYihyVYlHLs0q4V3ILCgBHQPsjAldQMmGwmSUGaiV6uvgxFRVy8DEhLebzdWZ1h0G1lHusc6ErX0RHRvRUbthjHgR/hgXIe6z9lQoRgTjBeEd1Rpq3pTuow2HuiX4A5byKLdEhfznTg0ttOwc5iYcJ9X3+DjA2IqJvwQGyCQCQKRBydhwIQlKEe1mL6bJa4k3YO9DUjUAhcRAY3RyEvCQQE9s8s/1ZZTrqyXbb6+RRWGkHXxjAff3lJTv8TaFD13r846oYSs1eTssLiVhe3KV1qst+69YJYU8qKNHRWjWcXnYkAzui845jtRp9hOcdtcVwArrO15HhtViMlapIP/gsDiE2AenJABk5agHMliYZ9QBlMIvzOkjwFJ5M0rjH/JZS4i2uzwe4fbasVMx7MjnRHyWZUtiGG3kejrBAPvZbRoJhy+9E/5OkGx4NlTkaaYvmBz+S5bRSjuemEvo0mQPOb3uVBWDLZOMPwTCwa7ZqjDz7EBAiCQLIEExwR5wcK+beDW1JMLlte6l+yJWsiFe7wzebV5YfFgLp9GTzOkvntY1e8mluDEHSNKkvTcqT+KL0PPb9ec8/AI444RQsjyvWp4Pwk9d2rbyzw8HFGCS8Wa+r8OmFPAYsGgikyTbW2kBgIg0EUgaQkSK5zqDc5V9NSVK99hhWOI7PbeHiN6vU9b9L1cgl4dS2MWvaFRv1khkLgECVG3WPBecb/7AZe37PAZrL7RY50VMlMph1XgI4zu18btc1MpCjIFgYwQSEGC8Qf8ubXYEwpWirUT1dmcyBT4PLRlpUnVYxDPk1gyPg91RhlBYBYIpCNBQtRCZTFbEfjH/P+mxP4fTE74BJf0HgsxC2RHLAN/TAabb5mVp8COWH4cDgLzSiAtCTIeK1v6cw2YDqNV4EFA3Xr4kIJ5pYdygwAIzD2BNCXI4FiFR7ZclSKDQraM0LWjJ/TNPUJUAARAYJ4JpC1BwWZ5/WGVPeLlzLH38T9cn+frBWUHgYUjMBkJLhw2VAgEQGBRCECCi9KSqAcIgMBYBCDBsbDhJBAAgUUhAAkuSkuiHiAAAmMRgATHwoaTQAAEFoUAJLgoLYl6gAAIjEUAEhwLG04CARBYFAKQ4KK0JOoBAiAwFgFIcCxsOAkEQGBRCECCi9KSqAcIgMBYBCDBsbDhJBAAgUUhAAkuSkuiHiAAAmMRgATHwoaTQAAEFoUAJLgoLYl6gAAIjEWASfAH+AMBEACBrBJAJDjWbwdOAgEQWBQCkOCitCTqAQIgMBYBSHAsbDgJBEBgUQhAgovSkqgHCIDAWAQgwbGw4SQQAIFFIQAJLkpLoh4gAAJjEYAEx8KGk0AABBaFACS4KC2JeoAACIxFABIcCxtOAgEQWBQCkOCitCTqAQIgMBYBSHAsbDgJBEBgUQhAgovSkqgHCIDAWAQgwbGw4SQQAIFFITApCa4UK4euf9qo3FteFHSoBwiAwCIQSF+CXH+0E4R/FCpchCsHdQCBBSGQpgRX1su2q+sv9GAQBPTULn+GqHBBLiNUAwTml0A6EuzWX8d3Dspbu3XH100IFc7vlYOSg8CCEEhagr31VyoshbyswiOoMKSBDRAAgSkTSE6Cg/WnVxUq1GlgGwRAYGoEkpFg4XHT16Y+WI+347stxzke8M81e8dBEPhHlcKYNJaLj23nzA9HIem529gvztC4457DKmhviPpVWvzd/TFri9NAAAQSIZCMBDfsLpkZQ3+jvAklMVL91spNUYQO9c+4eU+lDelZfSPqjI+UaNIHQ4JJE0V6IHB1AgshwdWKQ5ln/YY++EjIypbtsf30uJK7Oqqrp2BK8OrpIQUQAIGrE0hGglcvxxVSsEpHTIG0Vcl3p7JWdVk/nTa2uz+b+B5IcOLIkeFcELByN/Mrl5d0Of9Jzrr8kHE/nX8JLlXYSFvg1T/rzWDr0Kdtv/k4Gmm0bu/UjqOhQ/+sWTXuY+Gde9/eWCvVW6qb77v253lCrOJ+02vz3n2HeoflaNabC87Zs4r7js/D0qBD/eNqUW9aU4LdY4LWbZZjOKYZUN850GLb+2zQwbc3lrdrzrnII6DnTp0VTP+zil/a4QGB7zVjA6NLhdKBKmTAU3hUSOny0ouFbRDoScC6XWU9uXN7S/+yGIcub7Frnzr7qVyoyUtw67mYDKlt6dW4U2nwSZKGJiNCSO+D9RMHbj9qMied28WBR/IDrE3bE3M4vsfmbc6ETaizF6qES7DtM5d1fDc6xm00mBP9U8dpeUJV9FDVkgvOa/F++bnrHDvSlX6ztKpKdqkErU05sErVmCZ3bUCPStJQQoInfKklL7x7Lg7x7Wh2xQrHZ1k5j10xYeXbGzKRpQ1bnCWqpirivVQHqMLiFQQmQkBdkPxb3MuDwoDqUt9MvlDJS5AHOEEQOBW9tPwLrM+Nig97H6yfOGg799RleFpGbv1PEoqg7tNiGPssbwv7hLGk0shZvShnVKzSG+FK395U531WZ+ON4TQOF1wQ6CnnKy12VkyU4RlmJJirnrBjNRcTslbjdVMkNYaqEEp5RyVZ5e0Gz9Kp3laHrIkBU1E7a0d8flQOlU/WSg2mRd2k/fnhExBInIC8RLnm4vGgbkDz25FcMeZegtJYQ0rwAXeAV183CW4dMnUoPckkm4+0g4TjTqpKLYQQcZgylDgglvJqlVms05SKuiwSLDfbNCyBytjMQkgwTE0cJHaq6peO2JXkfm3MA60feAGlzt6PCCk1O6w8ZXO63OIFo40dlS9eQWCyBHp7cBIGJITMhAT9VlWunRudvLU/QiQowkYlOy0zIUepEqEe376nHWD6i39gGqrHAYSQggwXRVLmMWYkKPOycjcL93Yq+zX7jePJAUnlWeE7rx6NbhJCDAkWeVfXLLlWCXmw6AjrSzhPeE6xlPUTsQ0CaROIe3BCBpy+BLe+rpfCjtt4lIW/hhsTVHrrUq6hEtNuolSmv/g+8zB+gLMXr4NhOjMR4yNCrLtVR47xieGPIPB9PqJnSlAFfTKngSXXSyQOVsnHX3v8OOgnYxsEUiagezC6+SKtXnBYmSlHgqocVm6zXN3dyJndNPXp5a+8i9d/dtjabVLqu3b5JiGjRIJKPSJz0198Xw8J+i9j0zMiNPPqd/gZZiKGBOVSR+q9qVceFgt38vxGFzMLw3eKibFzuEjwtGb0llVKeAWB6RPQPch+pVM34PQjQUKs3Ga16YlpBzYb6+yPrEIxohfNohotuc47pIF3wIcBRxgTHEeCwUnV8IsYE2yrwbZLJMg/Co7K2pgjIXL1jyqJ4TtVSXOnGBN09oxkrN0mW69zuKMSdKvhhDVPJve1G3QobZRVongFgekRiDw4CQNOV4JW4UEt3gEUPbSO7zzfiZbgDWyOvneMFGsnXK/txo6MMUVspc/hkj6zw0o9InfTX3yfGaYJi+k/XEuFKp8djnqZZiJGJChOP6tFk7bq9Gie3fSd5Uxk5gAAIABJREFUpGLutITlqVNZU9TkmhjafGQREi4sr0Z45TUnDlBn4RUEpkiAXZMTMuB0JSgWOccHpsL33eNrlzSKdbfmimiyQ/n6OCd6kgLV1osQ0m+doPciXChn2k3kavqL7zMPExajrBB8oZ9coBd4dnTnspmIIUHl8aDNVy/K5Xu+zxZmq8Urpu8kjfhOtWimQz32AAtZDHqsbqdZ3eELYtQSSLVOMDrgEsr4CAQWkUDyY4LLa4XCnYIa1VLMlnI32c7CzejWlx4SZDf/iuXjQTCSBFk2/EYIT96uwYcTfK/ZK6I0bsxgD1zodcdIbJ2j6S9eqx4S9O0tdseIGNON3e9BCDETMSTIJ0aaZ+oGlY7vvant3JZGk0te4r7jpeix0yp+2XBDDoPuGOlxS4lqNLyCQBYIJC/BoakpCXYoj5/Y4w/YjWmbdTFCOLIEh844lQNNwaWSBRIFARBIgUAyEmSr23igN9x/xdSnkCC/B2OtXH++taz3VceIBFOgM0KSkOAIsHAoCMwQgWQkKHqG4XDeoA0x57DT4E8iCJ/+Eo3WsfN9O4WbBFMEDwmmCBdJg0CKBKYiQXlLg1jPwWYSWpWCenyAFGjs5rAUCSSUNCSYEEgkAwITJpCMBEfsDhfks8PEoH6vuDFaVjJhHsgOBEAgYwSSkeC40NR6jpgHabM0zq0j45YC54EACGSYwHQlSAjJV47V7SJChfpC3ww3DKoOAiAwGQJTlyAhZFk+rrlDvTfmo5gnwwC5gAAIZJjALEgww/hRdRAAgWkTgASn3QLIHwRAYKoEIMGp4kfmIAAC0yYACU67BZA/CIDAVAlAglPFj8xBAASmTQASnHYLIH8QAIGpEoAEp4ofmYMACEybACQ47RZA/iAAAlMlAAlOFT8yBwEQmDYBSHDaLYD8QQAEpkoAEpwqfmQOAiAwbQKQ4LRbAPmDAAhMlQAkOFX8yBwEQGDaBJgEf4A/EAABEMgqAUSC0/4ZQv4gAAJTJQAJThU/MgcBEJg2AUhw2i2A/EEABKZKABKcKn5kDgIgMG0CkOC0WwD5gwAITJUAJDhV/MgcBEBg2gQgwWm3APIHARCYKgFIcKr4kTkIgMC0CUCC024B5A8CIDBVApDgVPEjcxAAgWkTgASn3QLIHwRAYKoEIMGp4kfmIAAC0yYACU67BZA/CIDAVAlMToL53aZ3XMlPtbbIHARAAARiBCYkwfxu0w/Yn39UhgdjbYC3IAACUyQwCQmGBuQahAen2NzIGgRAIE4gdQnGDAgPxlsA70EABKZKIF0J9jQgPDjVFkfmIAACBoEUJXiJAeFBoxHwBgRAYHoE0pOgVdh3qLBd+N9OuMU26HG1sJRQ1VfWyweO50cZUt9rPt8ZJ/2lYvXYp6KoHadMCFkpVo8blYRKimRAAARmikB6EmTVzO+FHqTOXp6sVaL3CS6X0ZINKKVtSkMZ+s3y2mjA1w88bmjPOXacw0qBFO3zIAgcSHA0jjgaBOaEQPISjK0H5J1ibkBBhAtLXyiT33O8N1dZN2OVj7i1TmrFlYi6ldupnzEX0qOSFe0evFVpsZMaD8IjN2y2ugcSDIFgAwQWikDCEgzHAakW6C3ncrqGrFxuWTEMQ0Vdi+rDIV8rDnOgW+3uWa/VWFDXbuwMmRI/jEvQt++H50CCIQpsgEAqBKzczbwWwfTKYzn/iaGRXseMuS9JCYYGZFJiQ34D7g8JDSiOH9eDpSYbv3Nrq0MhsG7v1MIhvyDwz5rVe8rJe1ynojT8v85rHgVGe5xXL5hXvReFKLMHDd75NgpQYsFpZFLrdqneUuOMDI3vHJSi8cr7LBffLpUOeU+8Q/1G6Uc8g+V71eaZWGYeBB3fe1PVo92oDNgCgbklYN2uslGyc3urrweXt9hXhDr7BT2cSqrGiUkwZkDuDdrcFd9lVlrrbrX2pVaHH5Wb4cidssxYHrRKRzwh36k9XFc+683H2rQ9MePh8yE/3l9mcPf4bSzbNefY8dqsNP6J4xw7tVqlcez67BTqHTvOcW2LCys4reVUDgWuxSAImo/ULrLTaLMIdIvvsDalSekZS9M5lVKL+uk8TdqmLJeW45z5ztcs+fBHQpzosqFJVtjKiKOcYbGwAQKzR2CDj7nza7u3B4UB+QGBb28mX4NkJNjTgNIsvMxS9jGX6xMaoo7j3Ve3tFE/jYRKz13nsF7+Rb5LiKJjS92nxfD3ZHlbGMqrfybhDuoOq96x7H3naqey6L69IZPgsSGVvfBc9YSrS3hWHLFWc9lJapxRiJUNRIblIkQc0/Hqm+FOq/jUZfVsVUIFyxzxAgLzS0D3QNyDugFVsJJ0TROQ4NAGFLIwY1q9/poHo67isBW2cpsV+1hfJBMEHerapehWZdFv9errZppbh0wsocIGSZDs8O6vivt4Z/zIZqGfVxedZK7JcGql3GzTKHWZtTKpeCskaI5digDTO4gVVpxodL3N2uAdCMwhAd0DkQcnYUBCyNUlaBW+lA9HUBKLBz4qDBxBgpG5Rm9QK3dza7feCHudLTk0mXvKwq9QdlHCQo4tuQZmoASJHujxbXffqhyHkzPcU51mKcqAbVm5m4V7O5X9mv3G8WSH2IwET6phyEcI4cUIZA+a9cTlP9FbVwo288A7EJhfAnEPTsiAiUiQUR86GBwqDLyKAfVrQMmXNrbZbhFE9ZCgCMSGlyDh0R9PqPjSZxHgHSIMy9x0p85mN44iB1p3q44Yzgt/JXyfjzOaElQFEFUQEgzPiG04e3pFsQ0CC0FA96AYu2fXfVq94BDZ1SNBmVRPDxoTI7fLtf1oMI4kNDFS5PMS7tPeo2Sy28mVkVgkSMTKRLe2ygcEhVa5SX17Q3Rjm7sqqlsV68Op96ZeeVgs3BEjlbJcMvg0LSyAcgmGfeqwvbABAgtNQPfgRAyYWCQomiXmwckskbHEuhbf3uheJyhtFTiPeQETGhNkfVueqbNfZWtqZNDHZ4Q922bzJE4lLIwo3lFZSZGXZEmsbbwsEhSapIdihjm87rfY4CN1az8N92ADBBaLQOTB1GNAAS6xSFAkF3pQN2C6i6WXuH2CgJ7Z5Z9qyylX1su2x6Y8aLMklSTFMuLssLhtzpyLWK2y8UW2qCVw9oTfrKgDe1KN4lIhwbNa1MdfKlRb7MT47LDZHSaf8W514Nvb4Sy3JSoQdM3tLNaXALXJPAHmwQkZMOFIMPSg/hh9rkWtPlzz+nrAK982R6y7Nb5yhIulw+8d5npi7zueHS0xIf3WCXovNsJIjbssWufM5ijYpEdAPb5OUF6f4cqYSI7hgkGjby67w0HQ5isTWx5/NIPvs9WIKpde3WFCyPrXslrGOkGzRpn/ugAACFyVQMKRYKw44XJfOboZBbqD7yeJJTXg7VJh53nT86l8+guTlu8e9ri/wrh5o0ONO0Z4Ht0StO7WHDmfy+ZAxJ9Unj7PIlzWde+KdTd210dt57aM6Vy+KJr0kSAhRNwxoh5pQ/1WvXQ71PUAJPgYBEBgGALpSXCyj9Iapq44BgRAAAS6CKQnwZ7rZniPVf1H7xR3FQw7QAAEQGASBFKUYJ/1g1KBMOAkmhd5gAAIDCKQrgT7eRAGHNQu+BwEQGBCBFKXYLcHYcAJtS2yAQEQGILAJCSoexAGHKJRcAgIgMDkCExIgsyDV32M/uSgICcQAIHsEJicBLPDFDUFARCYIwKQ4Bw1FooKAiCQPAFIMHmmSBEEQGCOCECCc9RYKCoIgEDyBCDB5JkiRRAAgTkiAAnOUWOhqCAAAskTgASTZ4oUQQAE5ogAJDhHjYWiggAIJE8AEkyeKVIEARCYIwKQ4Bw1FooKAiCQPAFIMHmmSBEEQGCOCECCc9RYKCoIgEDyBCDB5JkiRRAAgTkiAAnOUWOhqCAAAskTYBL8Af5AAARAIKsEEAkm/8OCFEEABOaIACQ4R42FooIACCRPABJMnilSBAEQmCMCkOAcNRaKCgIgkDwBSDB5pkgRBEBgjghAgnPUWCgqCIBA8gQgweSZIkUQAIE5IgAJzlFjoaggAALJE4AEk2eKFEEABOaIACQ4R42FooIACCRPABJMnilSBAEQmCMCkOAcNRaKCgIgkDwBSDB5pkgRBEBgjghAgnPUWCgqCIBA8gQgweSZIkUQAIE5IjATElxeKxTuFApry3MEDkUFARBYDAKzIEGrehKwv3O7uBhQUQsQAIH5IZCWBJfvbW38qOx0uN28evH2xsZanIq1afsd33nj+OKwwHffOF6bNnet+KF4DwIgAALpEEhFgvndph84FVJxuAMD3964b/vUq2/qdrtZOxUfB0Hgu8euUiFCwnSaGqmCAAj0IpCCBNdqLpebf+pRaTnfPeOb7cbOUlQK627N5btF6Gc9aPB3vr09+uDgynr5wPF8lWEQUN9rPt8paNlFGSe+tcds79sbiSfcK8Hl4mPbOfOpDJ+DgFK/ZVfujQ6NELJSrB43Kr2ywT4QyAiB5CW4YfthgNe94expweCSONa3Nzntz+peEARtp9zVcR7QGGsVJ7QfpbRNafjWb46c2oDMen08MQmulZuKLj13nWPHOXY8tcd7uaHB7VXO+L6ifR4ELGbHHwhkl0DyEqy0utUX7dHCJa077Dv1/bqjvsyBb2+N0CJW+YilT09qxZXoNCu3U+fhJz0qjaiGKJHZ2loqNUWofFzVa0oIWd6u86ibOo9zo5RZ/AhBgqMww7ELRyBhCZaPI9/12/KeFwTGHA+ggihsYz27IAjcp/lROIuRR7fa3fNdq/HQsrEzSnKzeqy1w0cLaKvSk471iBvSq6+PUAFIcARYODQ9AlbuZl6LYHpltJz/JJdSNJOwBK3czZpY7xL49gO++u8O/+++miNplLTaLudYvQq8GxwEbW6rlVyuW2e9qKh9pSYbHXNrq2rH5a8rxeobL5yE8c+aVX007T7rzPt2qXTI/Bl0qO+0/jfrpMdNau02Wfh5yGPW7u7wUrFsO+EQZTwXQpbvVZtnKvTt+N6beHAXr8SScL1X/yz+iXq/YXvUP7NLf6N2EGLdLtVb+uih7xyU5Dgpr6n2QxXFg5eUrfCCYfFeyJ8xlpMcyTX4l1hs7tv3ZUkuK8ZSmTefU4k1+jZX/lGZX/fLxf1m2Otnw70DcUUMsDXrBKzbVTacdW5v9fXg8hb7XlJnv5CGBxOWICFEBCz8qxIGJVbpSI7SuU/1/lqhcug4b6rlh9XqfrX6MDx+pGZTiftO7eH6gNmBcPSw7bEBtVOhIersqeiKq4G2aRBQr+U4Z77zdYF38GnjgV6qHF/bSBvbfGdMgksbfKwtCDq+G+Xi22pyPL8nxzDpGRvUc9nAHGviyiWDoY/5r4hX1/Sjl6fHNluBJBLmuajKBnJ84E6lIWfkqcfGFmtiCGJA2YQ6T2thKwotBkHQfBSWYafRZj8bIsEBxSCEGzNwvw6TZOnwq0gwt+QoM+Uwjx2vzWt1PqF5qLBW2EiHgPqy8JXCvTwoDMgbPVDzB4kWJXkJkijEoN5hZeveTu04DHmciorXNr62a7s2D7f8xuOK/XRnfMcvbdRPw6mQgM0YHNbLv8h3CTEvFuV4B9EEgpyh7qiCycLTxoOoOCLoC45KEfnVKpsBD/uepgS3DllhaKsazk1Ls4jjxex5R18wZBWf8nnyVsUwQZQfESKg8XhUOyK+KTUd+Z0QIifuw6Cvqzs8uGzqFBm45cJ1TtFoL48NVVGHKIYI+k6qWt15dC81ykNgY10Bb0fq2b+I1xnv55JAGJr08KBuQC1YSbSeKUiQqJ9u4e7ov1odflJ1xQoP33XkQhqv9pOr1MzKbVbsY32RDOvMunZJxXiE3OHd7tBcKjfxtZYhqpBgvPPLv5OdZll12XJPuQMPVOhqSFB2z6tK9zyf9boX0LZT+RGRPcrwXFkMWYp+nXrxcSQaeZZaiRlBDpw98Vm52aZdy3aUwoxMQycOVTYR6au4j1f2yGahn4pSeR5h4DxMMbbY6dqAhvjV8SQiXseOW70d/SzJ4uNlYQj09uAkDEgISUOChBCruB/eB8K/oG3X/jzSEZvQ3HflsNEqW1cYzpZcvVmt3M2t3XpDdnWDaCaBqyoQHWG+uEQsMXHEGkYR6AkJnlRjXzgR3KlbWcQgphtpTpfgPd4J7X8LoJg9Fx1hWQCx0oX38pRc4hj6SJAphi0JEv/474qSoEzByt0s3Nup7NfsN+FimtB6MSeSocqmB3p82923KmxCTMxN8TQ7TS1sZiW5tBhk/UAfarR4Mbz6HVGFXOVYhvnU9/rE+HFceD9/BOIenJAB05OgaAIr90mfJyP8RK7s899Uqw3eWaZuVV70iTWfHHANjJE7LWYyN1t8tZyQoNjWC6L2MzmK9Yx6902XoDpSP1vfFqIx847exRQWnSjGBLXBuOgjtSVSDlOw7lYdMdoYJu/7fEZogATDw2MbKmUe/fGgtPjSZxHgHSJCY2ZwEW5rQwdDFEOdJYJ0MdSg410qlGzthiI+YWXE+IoAXuebgO7B8F6AQOtBplO9lCLBgYXNVY4891j0hKnXcv1W1QgUByagDijy+UpzvkV9RuRQmvz2clWpsaroGGOrr8JYf5atK16SYYuKCvnZugSHigTD3qKR+WVvhBoCLfzsOtqQ4Kr4maHem3rlYbFwR4yQxkK/2FsRCQ4sm1iY6dZW+YCg6KJzbr69ITr7EZyhikEIEUOHbO479zUbajAW1cuaWrmf7lQOGjJyZ5PUajiiCwV2zCsB3YPsRzh1A6YbCcoHZPElMjd7L/HZqJ9R6jdiXaeR2s/iAmKDX2rATjtdrqN2HvN9QnBq1jI8jHV1O9R9zr9RfSUogx336x3W3dXGB1k6ugSJGBOMrfngJaF+46Ga4hBra8JCED4uRt3aT6Nd5pacBI969+bHhMjOrG78QC4xUYfKdTZ9I0EhRbnuR51EusommDv7VTZjLYM+PiPs2Ta7H1yru2idAcVgOQn3eQcbbKZFx7vboDSI/XTJqarugD0qM7bmlkDkwUkYMHkJLn+2U7Wb7nk0Vxt1qTrUP3MaB+WN3kIct82W+NcvCOiZXf6plvTKetkWt1E0S9KPIppjN6SEE8dqAYdaf9dfgkTEYuc+W7AUU5ghwR6rmmUulJdE9KYD/RZpNZXUNWljQFErb+hJLc5wZX3nuRyENSR4Vovi66VCtSXaJZSguG1OW+I3ZNkECraQKAzZxEAeb229JyskOKAYvJZiwaDneTG8Ii9jYsQqPGfRYrwVDFh4M88EmAcnZMAEJWgVHtTiI1CR/+Jb9LQx5g3/vVo2fBADy6YjZwlklh0vXJ3HTv2sKh7ZIKdH1ORJdNftJRIkMq4MwkHGsDCGBAlRtjJziRp1/WtZCmOdYKyoYeL6xlrJVouB2CwBn1HRfnLYbLhclyP7oYEsQ8vjD1zwfTb9Ei1j5hMaAfWidYLDlS1cGRMJNFwwaAxNDFcMUUWxYLAb7wYbeWR//qlYVslVfvmySh0atkHgUgKJjAnmy2/USkBxtXaof+o0DqrV/fIWm5qsVtlQjnbrAjuMui+i9XqXFnKID5cKO8+bnk+1Z6v47mGv2zDEHSMqVKXnTv2Rtgz9MgkS2QvrjtdiEiSELBXLh+7AO0ZkaTvUb9VLwy4BYb83jVM/utuwQ+m523i+s24uuLfuxm5Kqe3cliFnuDLZultTt2yHs7HybpbLyyaVp6/ZEei0lS6i2YYphmxgsWCwGy9bbMAaV1xcAbvBhtVliMsCh4DAYAIJSHCdT02IC5SFeD1WKYflWF5/WGvKhYHMg81HuJRDOJnf4BI07snLPBIAmACBq0sw7BlR9+kW+1+FDP63XjqUkWNswHsCFUYWM0pgqcBvPrls+ntGS45izTmBq0tQzCjKnsrIL5jgm/MLKIHiP26yxd58XZj/cjIPpk2g1EhiYQhAggvTlHNbkW35oAf/TTmay57b2qDgc0fg6hJUt4UM7gX36injf7M5d5cMCgwCi0Xg6hJcLB6oDQiAQMYIQIIZa3BUFwRAwCQACZo88A4EQCBjBCDBjDU4qgsCIGASgARNHngHAiCQMQKQYMYaHNUFARAwCUCCJg+8AwEQyBgBSDBjDY7qggAImAQgQZMH3oEACGSMACSYsQZHdUEABEwCkKDJA+9AAAQyRgASzFiDo7ogAAImAUjQ5IF3IAACGSMACWaswVFdEAABkwAkaPLAOxAAgYwRgAQz1uCoLgiAgEmASfAH+AMBEACBrBJAJGj+KOAdCIBAxghAghlrcFQXBEDAJAAJmjzwDgRAIGMEIMGMNTiqCwIgYBKABE0eeAcCIJAxApBgxhoc1QUBEDAJQIImD7wDARDIGAFIMGMNjuqCAAiYBCBBkwfegQAIZIwAJJixBkd1QQAETAKQoMkD70AABDJGABLMWIOjuiAAAiYBSNDkgXcgAAIZIwAJZqzBUV0QAAGTACRo8sA7EACBjBGABDPW4KguCICASQASNHngHQiAQMYIJCVBa+OFSzvBFf/oaX1jKWMtgOqCAAhMlUBCEvy8Sa/oP3U6fVOaKhBkDgIgkC0CyUhww/aFxLxGtbo/3r+GJ5Lw7Y0RmqDiKHv2fWUJigI6leFSrrSCIPDt+8Md3e+olWL1uDFkjv3SwH4QAIG0CSQsQWevT4GXcjfvFAp3CjdzVp8jlM5Gk2C52aZU+ydUqO+hp/XiFCRYtM+DIBhWu32YYDcIgEDqBCYlwfsyVuyvuPEkGAMkErmqepKIBEeLPWPVwFsQAIGJEUhYgt7zfO+iD5TgStUdpzscyw0SjAHBWxCYAwJW7mZ+5fJyLuc/6duLvPzMgZ8mLMEgoN6LjR493su7w2sVJ5xY6R8rDqwMIf0k2CMuy2/XmmdyKDOgvnNQKqiJ6XgkuLLF+7aB91Kr2kqx+sbz1YS4f9as3luWJVTGV8OUMjK1bpfqLT+cQ6fnTv1RoQerIeqJQ0BgYQhYt6vs639ub/X14PIW60lSZz+V70syEsw9sh1P09hoUwobQjFMGdRzXpZy4zfvsBLM70nr0jPHOZZlp62KiGMNCfY0YGjttuccO86pkCl19ngCdyqNY5f7kXrHjnNc2yKEqFN8nmN0yuMrVHd8UDgTBGaEgPb17+1BYUDVT9xMvtjJSJCXywrniIOjrmUul0SCj5oyYvLtKy8SHE6Cq6Lr7dvbKnZbki3R3GWRWSRBuT8W3uZrp6zI3kEUGFp3ay4Ngo5TWRWNFI89iy+ZKN2n0XCB9aBBO5QeV36UfLMiRRCYHwIqPmBfqrgHdQOqICPpmiUoQUJWa3Jc79wuxgqqeojdnV1hBy6Iq8dEQ0mw8IKtxqGHLD4L/6zdJu1Q7yXbKSW4KcwYMyAhd+rsfK++Hp7MN4T23KeiFnEJivf+4Zbyrnky3oFAlgn09uAkDEgIyaIEK8fsJ8d53Pei4xIMqOzfe/XPzCP3+NpE0RFmvV3174yfIKPguASJ+hkIOtQ/bdr7O+tpjfOapcU7EJgLAnEPTsiAyUpwbrrDUW+3z8UhJMhGKE/4Cu5Y0CckKPvwXS8tsT66S4KELN+rOufhyCk/8dyp3sXUSJ9mwO6sEdA9qKYc2XyIGGpPjUYykeB8TYwMGQm6z4sWUcN/L7S+L5cgbexc2ig9JCiPX8lv7dbsN2LmJAhos6RmpS9NEB+CQAYI6B5kcULqBkwsEhTfeB7b9Cn0JRMj2swpS6F71HCEph9hTDCez2dspI+2qjfDMUExx833syHAsFMsOrbthjGmSMjWIQ061H0udBmT4HrtlNKOW5PTJqJK63xw8cr3543AB4eCwMwTiDzYRyZJ1yCZSDCUoLvfZ9xfjYjF1RPWJ93F0qaS1sQEjm9vhl3RfKXFOqoej/hi/eUNPrGrzYQIeQW+Hc1yWJvilpjQleK2uch6TJFBYEyMrJSabTYhVDXMGBLBBghklQDz4IQMmHwk2Pfe4YESlOucJxEJEkLCdYL+KV8nyGQUBJ5coxOTICFyAY1QJLswP6uyBTFBEBjrBI3V1KLTTT21TnBVLQgXp7TkQmvfjtbZZPWSR71BYJoEEo4E+0rw8u4wIyB6shOSIPPgdi2aprj8jhFCugI9QsQdI2qeo/v2D+tuzVHP1qnf4W28Fr9jxH5c7BM5T/OaQN4gkCkCCUtQ3IARrRoJl48M3lB3nPTtMGeqXVBZEACBCRFIRoIED1WdUHshGxAAgYQJJCRBgsfrJ9wwSA4EQGAyBJKS4GRKi1xAAARAIGECkGDCQJEcCIDAfBGABOervVBaEACBhAlAggkDRXIgAALzRQASnK/2QmlBAAQSJgAJJgwUyYEACMwXAUhwvtoLpQUBEEiYACSYMFAkBwIgMF8EIMH5ai+UFgRAIGECkGDCQJEcCIDAfBGABOervVBaEACBhAlAggkDRXIgAALzRQASnK/2QmlBAAQSJgAJJgwUyYEACMwXAUhwvtoLpQUBEEiYACSYMFAkBwIgMF8EIMH5ai+UFgRAIGECkGDCQJEcCIDAfBFgEvwB/kAABEAgqwQQCc7XjxZKCwIgkDABSDBhoEgOBEBgvghAgvPVXigtCIBAwgQgwYSBIjkQAIH5IgAJzld7obQgAAIJE4AEEwaK5EAABOaLACQ4X+2F0oIACCRMABJMGCiSAwEQmC8CkOB8tRdKCwIgkDABSDBhoEgOBEBgvghAgvPVXigtCIBAwgQgwYSBIjkQAIH5IgAJzld7obQgAAIJE4AEEwaK5EAABOaLACQ4X+2F0oIACCRMYFISXMrdvFMosH/55YSrgORAAARAYHwCk5LgfdsPoj/qe83nO+sr45cbZ4IACIBAIgSmI0Gpw47v7BcRGCbSkEgEBEBgPAJpSNAqfNn0O569aUVlUpEgbTUaLY92tKjwuFpYig7EFgiAAAhMkkDyEszvOVQoTvegkqBvb7C1K6AZAAAgAElEQVTqrayXD71QhLRVyY9f6YojE6KN7d6pFF7IvJy93geMu3eDd/KdSnj+SrF63IjehvtH3dhjdZKsRj0Xx4MACIxCIGEJWpvG2F8QevBe3W1T2qbui2JYvOXt6GDf3tDixvCQYTZCCQb0cKvXCet15duUJVi0z4Mg0JzYqzRD7YMEh8KEg0AgAQLJSjDSTRB2eEMP9iqtJk3fvt/riMH7lAQ7QdBu7HQf/xl3IC9P0hKMZdYVGMY+x1sQAIHZI5CkBK3dpuyY+vbG0kb9THaLo3iwR/0tYQ524lF5rGBQSNBpHgVBQBsP4nmsH3hB4DWP2Ow0JBing/cgMAMErNzN/IC1Isv5T3Jj+WFw9RKUoFVpSQc2d3lph/TgatWV57nV1cEl7jpCSrDyiCmYxmNB7livXhKjd8aY4HLxccP1lamp7xyU9CkaXh2nslQoH3q+CGw7vvemWoymcbTQTw16yqpEnWKr8KDmnKtcRAp6e/Oer7NfrLX4MR3ffVokZnd4iJJwKmulesuXk06UzbzL8hm17uKHHSAwVQLW7SqbRji3t/TvhVGk5S32/aXOfiENDyYowbBb2iyFFRjKg1aZBXHsr/koPHP4DSVBstNod/WIuZu8F4UuHeQrx0I61D91nGNXau7c3lCO4+rxnBYNOvyYcFK7VcnJ0mkSvFNpyESod+w4xzU+PGltvJTjkf6Z4xw7XpvXkzqVNVVB7jvapkHHd48d99y3t0kvCV5eEkLWKnJCqu05LB2WEeVVTDn+VRXBKwiMQ2CDj6Tz70VvDwoD8gMC394cJ4/Lz0lOgvfULMdpLUes3CeFwhpfAniJB1fyhTs3c0sk91TGgv7LaNrk8nJrn4YSJDsNGusRc0u5tVUSk2COqyc4b5RCGS0VqjwWo0cl8WsjA1tdWGtVl4WEXv2OyF+TINsRe0uICA+pW7sb/oCpFvXq6yINUZLArYUlIT0lyH4II3XGSyJ/SHx7S627tIrPJVVIULtasDl7BMLf76A7HlTfF/6b7uxdYRVJ/3onJ8GwP9iq5L4WXz+1ZmWpWDtR/cF2s/Q3ojhbLHALguCkKpU05qKQSILkgbBgODvCs2BSVn6SHcNc7ZTlLLvtIR3ZMXcqPBgUEvReFMLPCSF8ZziHE7Ne7K2QcuAdSN2pdETFVSJCgryQ6oDeErysJKLk8XkhOU8FCUZgsTWbBHp7cBIGJIRMRIKEEOFBIyZKQYKxHvE2c6L7Neu8Sj9JCfKOczRsF14XQo5ST0KCsR76KBI0UgvzIETKUbqJSzC+JNDcObgkfDw0aMVXKJq11ouAbRCYMQJxD07IgIlKsF93OES9lMvHpneS7g4TQrYOox4x35aTLaYOtOAxLB7f0B2nb4dHmTtjoV/PtyriC5OIGdn0nTzK3GlmKg8xdvLju5dJmrXWSoBNEJhBAroHwzV2AU2pFxwCSC4SJKWmnEJtltXcQpjNpRtJTYzwTHj0x+eIebh3UhWTGKYOho8E4woz1KPiSxWAxSSYbCR4aUkQCV56heHDuSGgezDNcUAdSIISzFVP+BgfW46npk/1rPptr1Ycaf2rLZGR6fNedruxw8cHnT05I2FKcPgxwUvVM0CCI4wJDtEdvrQkqzU2CosxwX7XGPbPEYHIg6nHgIJKghIkxmLpYaEntlhahWOyR+x5lN3BpmJSU4Jk6NnhS9UTl6C4bY5NRsu/oWeHrypBkuMhaqDPDhf25ZoZTIyo9sDrnBBgHpyQARMdE2R4oyU/8XuBV8UqNuo8NoLE5G6b0+7Y5T1iFpRqt6DEJEhIn3WCfrOslqqYPV959Zg7Y/1fUjnmEbw3cJ2gVw8fsWMO/8lszJ1mpj1Loq0T9MN1ghTrBCUsvIBAfwJJRoKEEE1qgRetWSNETZvoKwGXt21PDX/Gpdm/xF2fdM9yCDcZK2C6JEgIWS7uN70Bd4yMFAkS627NkQ+PDdcSWoVH9eiOEcrvOdFXxpu+k7Uzdw4lQUKIfsdI22t8Waiye3h63ErYxRA7QCC7BBKWICEkepRWENBTu/yZWL1rFT+vVvdL8p6zlfWy7aqlg8HVHqWV3cYbVHOLj9L69r1BB+JzEMgwgeQlSIgVjkaJiRJ67jYOqtXdrcIvytX9euNU3d/KP6Z4qGoC1x+bmqd+o6TGQFmgK55U1m70fL5YAnkiCRBYCAJpSJCBWb5XVR1DYcJe/8Xj9RO7hqydQ94P7/hei92k7MhH+PjNR8YgbGIZIiEQWBQCaUmQ81lef1hrnhlxn4wN8T9aSv4CMoc4O9Rv2ZV76k7i5LNDiiCwIARSlWDIiD9PQf4vN9kTE/AHAiAAAjNCYDISnJHKohggAAIgECcACcaJ4D0IgECmCECCmWpuVBYEQCBOABKME8F7EACBTBGABDPV3KgsCIBAnAAkGCeC9yAAApkiAAlmqrlRWRAAgTgBSDBOBO9BAAQyRQASzFRzo7IgAAJxApBgnAjegwAIZIoAJJip5kZlQQAE4gQgwTgRvAcBEMgUAUgwU82NyoIACMQJQIJxIngPAiCQKQKQYKaaG5UFARCIE4AE40TwHgRAIFMEmAR/gD8QAAEQyCoBRIKZ+s1DZUEABOIEIME4EbwHARDIFAFIMFPNjcqCAAjECUCCcSJ4DwIgkCkCkGCmmhuVBQEQiBOABONE8B4EQCBTBCDBTDU3KgsCIBAnAAnGieA9CIBApghAgplqblQWBEAgTgASjBPBexAAgUwRgAQz1dyoLAiAQJwAJBgngvcgAAKZIjA5CX788cf/6T/9p0zBRWVBAARmn0CKEvyU/4UInvC/8O3HH3/86aefhm+xAQIgAAJTIZCiBH/1q18FQRBGfzEJBkHwq1/9aip1RqYgAAIgEBJIUYKEkNPT0zDc0yUo/BgWAhsgAAIgMC0CCUvw9PRUj++ePHkSvv2Y/4l66vsJIU+ePDk9PZ0WAuQLAiCQZQIJS/BXv/pVzIMD4T558iQIgo8//njgkTgABEAABBInkLAECSHCg0NK7eOPP4YBE29UJAgCIDA8geQlSAgJJ0Ni5ei5v+fO2InDvV0uPradM592AvFHz93GfnF5uJNHOsq6XbLf1DZGOmfKB2/YvsTS58WpTLmELPtKKwgC374/A0VBETJDIBkJvuJ/l68EFMdcAvbTTz999erVkyf/f3vn/9rGkffxP+H+JxFKaBvSNk2ycRzZlmXLBCz8w/OD62uaoyZg8kPJWcmlOagDtc3hNDVHUfzlgSghqNTqQxwoMjjKGQWzviBjZ8EsmFsE+9zMZ2e0O1rZa2ulyOu3KPVqNTs785rdlz7zZZXnB6Rp+NHt5TLd5FXL3NX1TV3fdmxo7a5OjzQ87lgf5HR+q55ICVqWte/7X3n5WCzCPQgSDJcncgtCIBwJfvvtt2tra9vb240UNjw8TAFIo7hvbW3Ntu3nz58H7Ed76nYrp1sse7OUzbh9NzZXNNh+azM37jmgyTcnV4IIsppsehweQQLhSJDAuOd/FVQ0+0GaUz6Sxzbyo29618509i1ToLWVm3DtdTZv5yusd2yVHtV/duw9kOCx0eFAEPAhkB7/bmLMZ79r1+jEnfG0632Im2FKsFGxZBh4cDDY6PBD9o9wJdnG6vf+CefWTWvfLD/N8I9paEwZ/6rbOZLJvtJNHl3ySNLUX4kY8xnrCtdeZlF0ikennpYq8hjLdQg/Me/o6bmRqfyG4YxaWqb+YiqtaRO/rOp7TpbmVmFOuRrG2CGmGOg0d8v5h65xzh/ZWJ9ZzGbXedBbtcxS9oYPCarj4ZHgxIsKK4pVztZi6oncFmNhFqfZVcgJ6M/SUy8EoqplbuanlGJr6cyTVX1PQGwAJP9DQd/ndTcrhYd+Y4KBqj89+qggz2Xt6au/qF+IE48K5V0xLFpXGM3b4iyHJ5kW3XI+jXO6d6Un86wnt1dUr/waltE5dplb+ouWNEo7JEhLo6U45MrBWh2b2XpSZjnvFacCZVLnO3aUstO5523TYGOLmxUSkNOnflTQNw12Z1fNyqaur+e4XCdym/xur1rmdu0Qe68ohyNptMvcs+2qZWyxIUsOxCqvswvAYuOYzonsd/la5/2209O393lhxFH6M3GTcwla+ywPlu2uqf9aO9qFJKgENc2pvlWaJws4WpR14RI0tvgIxF5F39QNx2Ll7C15wjSdj6mTARFpDAWIZe3btllhdd8rztVPjASrvvlOZzR5e1WcrxOP7iee0XgJcdZ5+7m6DiPTRTqK2nTL+ZYy/uDSl3XCRksICPj8LvbzIBmQ/GEWZ8MvRPgSpIeCHz9+TI+I0GCfNCBt0ATIY/66f//+cTvCDMf4bzxy2Qo4t6n4joB6dz7k86jbBaEZTRuZL+3b1r6ec0IstTs8TuHhXil7W7TQSCbPoyfrbZZUwiVo2/vlZZFm4nceu9lWzWgjy2UW8VXyThQ2UdhmwIxXtbsx/UOhYtl2Vc+RcbgEWX//54MDFyklpSmct7WIVtM0Rz08z+9XeSkrBVFsigRt26r8xsJY/hLeXJ+j9+mfS+w7wVVZTZvIlripROjsAHFzViUYvPoiSmWnF/59m6XCaLfy/BIxi49EBC2sV15Ka1p6nhfWertca/Hb2RLTosekTm74EzoB+VXn40G3AV13SqhlCF+C29v8xvW/1/z3NvO4iHNzhyhB0opZ8vtSIvaKBMdJVfyOcjWOc+/pOW40uueNl9Qr58mcEwkrsH3p/DvXvXePC8hYfeDKVQauld94xEeZ7JfmvWnq3gkJNpgdrrz0RNLjT3noZJbLTIHei4+Mr5SKKlstk3iyb1lDq0Bo4EIUlYA4tRDF5TuFeoJXX5zXyYaYiEsi85LXQQia0qSXylbVMv6Y07Qs++Kplpdr3X+WJM2raR3KVZQcf5si4O/BdhhQ07TwJfjtt98e1YPHmREWyNM0hiWueLG70V9v0OekUnbW4nNrr1Iu5uf/rozIKhJkcaJtK+OMLEjlcnRuabrn9aeugnnvVfrAYwHSDXWEWcdc/LfLu94U6VAm7/IiKHPl79mkOgq/eD7yfeNMNzEFKnPrvFSeyJFlkOHCNosPpaVt850osFNy6u8bq/fYAU5Nvb2bY1bfWHV9t2iaF2xukxnZQ95dY0pMHWFJeFPX3/HxCiVn94HYDpeA6sE2GbAlEqTF0gE9uL293YwBWStQzyvMMUFNG5vKb9YWXbN7qOpMYvB2VyTI3/pIUNznfOmv5/amq8d7r9I+TzKSoH/0bNvkfb9MKCvv/48qQS39iHdfbbvyotZNZHnyUunPvNlLqbHK0rkaldv9raBKOZzqe5l48lRLLYzZuLBi4qv+SOwJm4Dbg2ImUO2IhH3OlkiQpDY8PHyoB9fW1qhGw/x13Nrx7kzj2WHW8bHMSnH5O3YCJeijc/ru1DRtdOIfy4ViWYy1W+Unzvied7F08EjQe89771UqiueO5bo5pEfml4kfySNKcESIjHUVK3k5ICgkaP7h6T5r2hSfW6Aoj46tFGrzJD4l8tRUfO7Zeezqe5kEigS3C77TSaJc+NsuAm4Psm8m71BMa0oRcndY+Q3BAzwoxwFpAU0zU8Zz66x7KKcgvKAe0MC+8YoG1vzuz1sFPnDu9Gcf/F6xLFsZq3rwio0riT6gEgkGHxM8ogTpZt4vOdMNomKsvlWr8juvkfeGF0nq/x5Jgs5cgVmcztBog3v6guJT9xS2pjmTD854X5q7zK4o89R83NDaL9GjKR7fifJ6dh67+l4mNCYo2k6ciU/4WFv575wlVpW8V9njv1bsqmU5hRVH4W8bCNQ82A4DhhwJUvRHc77EyndqmHoeMgyk9Nvb28efI274xMhU4R0fPtsvzTvD3uL+/E128SayG7RaRQzqPeKThZ6JkdHsBstH3NVcgmKAnw3+kRcOnx0+ogQ1x+BmcU7Ma2rpWXoIWKyL9N7wjS/RI0gw/aTMamvSchYxRftSTM9QZd1f0WIqXIrGycHS85NyrFLMIHumy71APH1qTTt29RUmt+lLzizOqoUxWKXkYvt87XEj5z6UsX9jrvikFQQY/zYZMGQJSv1RlKeska4fdSHrUeLHjx/Ln189BlVn4QgbvKOVemzFnFiT7L4VNef+lEvz2HITw2BxnpCgNi4X/bGVd5u6QZKUC+Wcrh9fAXfwOkGztiDGE+NQDZV7le9Uk32fZwti2HIT9zpBu7aEzS8TP4AkQdtuMDts7Vvl/+XHOd8oLmVIidDvGpAELVYsz/JG1xpATRufXydq3nWClp4TPWu1piFWv46JXCfov2jx1jxfECPWfop1gtam3zNIfnCx70QTaLY77F4VKHu4pDP6max698k9NHpIiYeHh9fW1kij9+/fP85sCV/0b8hnNmzbMo3y7/O1r3enoTxPMpi7peVJCg+lBDW2qE15YqSYcz8RMfFLiRbc2rXFGaNTL8q1s9c9k+Bzz9fdq7U5U/fPqNAjE6RC21YfZvDLxO+KFBKU9Os2+FyHiNfESmnKaoIWY9LXAJegWZxjT4zQ6HVdZflRHs521TQ2PE+V+ABRI0GezTGq78dkwvVIiV1fYO8TI7ZplFvz+0N+TYN9H5hAsxKkH02gf1NJ6c+6HxShWWBl9YwyDkiPHt+/fx8/NP2BL4qDT+9IELOmB2PCpyeGQLMSJK8p+qPaywFBRXb0q6u2bcthQTctyvA4kaA7F2y3jgAk2Dq2yPlDEGhWgnJVYP2IHj055+vH4eFh5Z8ZobrDgB/iGjjiOSHBIwJD8g4nEIIENU2j3xNsvqpra2u+0mw+Z+QQGgFIMDSUyKgjCIQjwfv378s+bzMWe/78eX1E2RGcUAgQAIGIEghHgo8fP6ZpDfp96cePH1OH9wAh0nQw/cNMND44PDxMsyIRRY1qgQAIdCKBcCRIP421trZGExqPHz8mGx4Q1tG/KCL/fU4aDXz+/LnvbEknkkOZQAAEIkEgHAnSEhk3kOHhYYoH3Tvd276hYn0+7kOwDQIgAAKhEwhHgqEXCxmCAAiAQHsIQILt4YyzgAAIdCgBSLBDGwbFAgEQaA8BSLA9nHEWEACBDiUACXZow6BYIAAC7SEACbaHM84CAiDQoQQgwQ5tGBQLBECgPQQgwfZwxllAAAQ6lAAk2KENg2KBAAi0hwAk2B7OOAsIgECHEoAEO7RhUCwQAIH2EIAE28MZZwEBEOhQApBghzYMigUCINAeAkyC/4MXCIAACJxWAogE2/Nlg7OAAAh0KAFIsEMbBsUCARBoDwFIsD2ccRYQAIEOJQAJdmjDoFggAALtIQAJtoczzgICINChBCDBDm0YFAsEQKA9BCDB9nDGWUAABDqUACTYoQ2DYoEACLSHACTYHs44CwiAQIcSgAQ7tGFQLBAAgfYQgATbwxlnAQEQ6FACkGCHNgyKBQIg0B4CkGB7OOMsIAACHUoAEuzQhkGxQAAE2kMAEmwPZ5wFBECgQwlAgh3aMCgWCIBAewhAgu3hjLOAAAh0KIGwJJieflmxqnaDl6U/m+hQACgWCIDA6SYQkgR/KVsN/Cd2w4On+0JD7UGgUwmEI8Hpoilkd8Bfy9jS9c2G/5Ve5Zcfjh4dVE53zmmVHvkfnXlpUBL9mX+CIHv961i1rD29+HTqGOUOctLOTjM69UIvPe3sMqJ0IHAYgXZK8AA/yo8s/en4YWVWPpcStK31OeUz/vbBquNAOwQJVi1r3/WfGAGw3hWmRvxOHt19U3+wb75mkEaXDWp2kgh0mgRt21jNHA2gkGDVtvdL8/XHfs8dyG3VzB1LkaBZnPaeIT3+86rBxwKst9m097NovyMgzSCNNh/U7qQQCFmCTdwSwmV1mjkMJR2ol9/atm2VflaTP3hl2LZRftts2NJAgux06VkaDjBWv1fPHuH3kGCEG7fNVUuPfzcxdvA5RyfujLcoyIiOBHNPytyCSizIb1VjNcs15TiaYsM6247/WrFt23j1wLc1DpCgpqWXmYJtT5ZjU7n1iikmjKw9ffVJRm3Fkanloi7TmLvlvBwV/ZGXeCvnKYyy8xkbDtWfpadelI19PqRQtczNPOuY386ubomB2j298Mg7aDmSyb6qnbeubLyuZnF6bK6wZTqT/papv8qKOX6CIQcxnE5xepKdVC4SqMvWUxW8AQEikJ7M65Zt7xXnGnpwdI7dDZb+ou4OCgNihCSozZf263rE3BrGywzdtSJQzfAesjKRMl7Ytm27Urjlz/VACWoa95G9XXBGNG/nWLsyK5uVTV3fdnxkFqdrHhyZLu6RudxpzOIsT6L4jgql7OQnNfdY5taurm9WTN7rt96W2Nn3DX1Tr9Ap7Epe1ks575ZB2jL+kGUjCVb0Pduummw6y1V+XpBMbt3JmZ9XLzzSNFFlk5VEHnKMQV5//tgbUQLiLrAbeZAMSN+4ZnE2fAxRkqA2X7KUHjG/m5nXvBLUKOjzTKTc42J8l280L3OIBElPTig4nttibWaWZOikOV93tlV+4mhwbp1p0trKZ8SMysQzbk5jlcWiiu+o6ZWdZF7bKi+JEO12gSaBrK2c2OVEqZUXdN40p2Rbb5dFAhY2lpgrzeKPdBqqK7sop0XZnC5/tZwVF6GClOZJKr/Vck3/XLKqlrWZuyEOwV8Q8CEgvj7ZPaPGg24DtmqZXaQkqP1MFpQ94jkWG/LoTLljtVt51vV1TaTwoUO7vFQL1JTWOoIEbxVY5tXysjAIZUXmtbdy/BzZMovaXAEaS8Qmsq19nWlD8R1loewkCXqmkkQxXV+Y6ResOKKrzs9bV7Y0z8pyJpYoE7v8xM3AQSj75857serIOfH6nLfj7c4B2yDQgIC/B9thQE3ToiVBpUf8iDmx8iuL7ZQ7Vo7iifucf+4Kc+rbyrnJ1dlhkZDmRsg03MW2MpynaRrJkdI85EN+e8UpkYH6V/EdfazsJAluSi/VKureRV11R4KUQ5V3wN1rNt/xDrvjU6qrsXrPXSgHoczZeS8k6Fib2d8yt8vFF/MPWjWQ7S4VtqNCQPVgmwwYPQlqvI/pzBHzbSfUUu9YTdP4RIr9dpnFZVyXnt5x3aVFOYh4Sv2Yoi37XZ7lRm6ql6DGJ7IpC0Vnan5HiAS9RVJVxTLm5fFIkAZY6v/vJPLLRHyPNJSgpo0+zOt7YiaIMt/T8z80DK7rK409p5qA24NiBS6bD2nxQ7cRiwSFzli3js+TiDE+HwlqvLPMO4Zcl3JEzP86PFCCzrib8ZKvcWxvJHgcCcoJnIPqqkvf8VSqGf2Q8oRjE3NLheKGM0tjW+Wsd1jA/5zYCwJabXpNfEG33IARjAQ1Utt+aZ6bSH/mhCG+dyxNTZSXsmzokKYjGl+IB0hQXSd4hDFBPecRBJepZZb+KSJBr63Gf2Oje7WOtjvEc0quqortdicboWWVylgknymqWlZpmWfjl8khkeCDwrZlVZW5dXpW55Bvl8bI8cmpJFCLB9thwEhK0OkRG+wxjppifCWo0YJBwzDF0OEBF10DCY4+WCrSEyOu5S9BZofFLG1tGlcsuqbQSdiqcFsU6na2TCttZEfbbTcnlZ+/PMnS2bfqrLRY3SJnrv0yqZOgmA52ptPpG8V0T4yMZcts9aIqXFEf/AWBBgSYB9tkwGhKkAb4WMRE432cs78ENVowGOhGpRxs77PDImi3rc3aShd2QvltpqwTdC9Mkev1+II+sRZPtr1jK7vKf3himy9C3jXYCpimJKhpt+b5ghi2BpCtYRTrBK1NuaomkAS1p/yXKyy2GpGtE7wllkZSdbYMWrTo+m5ocMVjNwh8UAKRGxNkNB1fude7NJCgs2DQrctGzeFkKrVHG1XL3C0X/vnAZ13I2FR+w5BPg/g/PjEytex6qsTzxIimae7nOqqmsb6cofCwSQkqObPlM0b5hfuHcIJJcGSqIB5KcQZD+WMq7idGTuvv6zS6iLC/EwmELEF6fuCA38tq/BH1KWvr2dpDi9buiYUy7TknzgICINBBBMKRoHb4j6oqEVTDt9aGfCSh9Zho0Gq/5PsLXK0/Pc4AAiDw4QmEJEHt4J/Xb6g85QNre1U+p9VSNtOvDPazgGwtEh5ubSlpZA4CnU4gLAl2ej2V8o3zJ8nsqlV5KX81QEmCtyAAAqeCwCmV4KloW1QSBEAgAAFIMAAkJAEBEIguAUgwum2LmoEACAQgAAkGgIQkIAAC0SUACUa3bVEzEACBAAQgwQCQkAQEQCC6BCDB6LYtagYCIBCAACQYABKSgAAIRJcAJBjdtkXNQAAEAhCABANAQhIQAIHoEoAEo9u2qBkIgEAAApBgAEhIAgIgEF0CkGB02xY1AwEQCEAAEgwACUlAAASiSwASjG7bomYgAAIBCECCASAhCQiAQHQJQILRbVvUDARAIAABJsH/wQsEQAAETisBRIIBvimQBARAILoEIMHoti1qBgIgEIAAJBgAEpKAAAhElwAkGN22Rc1AAAQCEIAEA0BCEhAAgegSgASj27aoGQiAQAACkGAASEgCAiAQXQKQYHTbFjUDARAIQAASDAAJSUAABKJLABKMbtuiZiAAAgEIQIIBICEJCIBAdAlAgtFtW9QMBEAgAAFIMAAkJAEBEIguAUgwum2LmoEACAQg0A4JJhKJmzdvLi4uzszM3Lx5M5FIBCgYkoAACIBAOwi0XILxeHx2dta27Z2dndevX+/u7i4sLMTj8XZUDucAARAAgcMItFyCd+7csW17cnIyHo/39PTcvHnz/fv3d+7cOaxg+BwEQAAE2kGgtRLs7e0tFAorKytdXV1Um66uroWFhcXFxb6+vnbUD+cAARAAgQMJtFyCpVJpcXHRXYaZmZmVlZXe3l73TmyDAAiAwAch0FoJdnV1zczM7OzsDAwMUPUGBgZKpdLMzIyMDZuv9nTRtG3bLE4fKav0ZLa4UTjaMUc6wdESUyX0nN9R9Jl94Et/5n5h/bYAABCLSURBVHfkUfc9049B8qgnQXoQ6CgCrZWgpmk3btz417/+VSqV7t69++OPP5ZKpZ2dnevXr4dI4VgSzHXY7X6QBKdeVqx9q/Zfleuw6tqzb5X/NwyikGAYFJHHySLQcglqmvbVV18tLS3t89fS0lIqlQqXUeQlqOA6Vn2VPBq8hQQbgMHuCBNohwQ1TUskEv/HX61YJHgsKZykSFC5/o5VXyWPBm8hwQZgsLulBNLj302MHXyG0Yk74+mDkxz30zZJsKura4W/QhwKlFVWpfAjGyM0i9Ojjwr6nkUjadaevvrLhHMIv9VrI2y10cR05smqPMS2TP1VNjMiz6Pltmzb1vM/FPR9frRZKTx0duZGMsvrhul0VE1jIz/lOlDTtPRkdnXLtCiBbddlTpXwHxOslYBvqfV1Pk5nfq7V167yMqgX1ujU01LFdJjUlUHTVAmOTr0oG2zElb8s3zyV0uEtCByNQHoyr1u2vVecUy9Xmc/oHLunLf1FphUejK4E3+l8usTQN/XKHt3EZvFHjvVRQd80mAmqZmVT19dzGbY7TXJhMwPbur6pG2Q6ozgtdMYlaFn7tm1W9M2KuVec00iChr5l2VWLHbhlOKbbyo2LRkzP8rkb27Z2Wc76tuMV621WNGqTEkxP/2E4leSncApv6bnbohDaRG6T64/KuVlxlL1Xq6BXggKIxSlJIHtHnIGS58cGCPgQmC46t2cjD5IBxS0865NFk7tCk2DXga/u7u4Cf3V3dx+Y0FlOeKRaqZERjwRpllMoRtzPb7MiZ7U7nP65xAyxX152WSNb8sw7cwna9nZBhJQsM2enWze38xUW8Rmr9+hs4/l3LPbTn7mOu12osGaVoV9zEqQqW5XCD6LGmrh0jNUHvBTjFP/ulbKygiOZ/BardM3FnkiQI9ovzYvvAE2bKGzbtmUU/yEo4i8INE/gdo5FgvRS40FxGbNPvXdQ8+cVOYQjwa6urrt371KH1/f/hUJhl79o7bRvmpWVlYWFhWP0l/0lWC1L4bHKkia25BIUVYLZtwxzeUlKhBMaESLg78h3ld9khMf20k7jJY8meTKxUwSe2nJ536pbwqNYT3krMvL7q9ZX0+a5wI1XpDt5zFyJBbNUjHHmr/oK3so7LibT1UuwWslPepnI7LEBAmER8PdgOwyoaVo4EozH4yX+amS3IBKkHI7xWLEqBfKdserR0iESpDxs8x3vrm7K/1Of0YnpuO/MojcgJwmWn3guBycl9b7FJ+nx7zIP53MvCsUNXQy0hRIJkuCkc8X5hBz5EsJ5LkR5OpnGe6xHguNO95kNYBr6+uryPyZG5XHYAIFwCagebJMBQ5YgLYHu8nsF6Q7/9/BSqRSaBGtBH2+rYBJkwZLPy/GLr9qC7Ez/kNflwAflb5p8SE5aqZlIUHwLeJ2raZqTKVtHzUPaWu+7dv16yu+RoKaNZLJFMXRIxa5alWLW1auv5YMtEGiWgNuDcgqxZb1gWdowI8Hp6YbPXwSZHZ6env7QEqwUbkkyPhseX4jPD995i4Y8LGNjNffPqcw9iqcU6ylvRe5+f4XzJG1vNOc6hLrJx40EZUbp8b/P516V9F1n5MZ4qfS7ZUpsgEBzBNweZN+7rRoHdJcSEiQaae4yu/KrZ7xP40Nm1n5pmac63HcCrSclD6/st8ueoTUabayFZs1IsDVjgksly7Kt0ryoE/ubXiqzK1OJst0psA0CTRKoebAdBgytOzwwMLCxsfHTTz91d3f7Ejh0sXR3d/dPP/20sbEhnzL2zcd3pxoZqT1ffpC60zPjwW7vJ2U+Uaq75gEmct7JU4/aRFEO30kS3HXNKYtp2Y6eHaY5E8/ESDrzO5tHsdbnRO3xFwRaQIB5sE0GDEGC3d3dN2/e/P33323b3tvbW1hY6O/vV6iMjY0tLS2x9Sf7+76PzSUSicXFxX//+9//+c9/3rx588033zSSqZIzvT2WBKdodRJb2eesExyfX3eW73nWCbrWvhzuO1E+T0qnO2zb+2zRolhIaJq1qdva8J2cvRY5+fxV68uSNFonaKzOygC0wTpB07UqyDsmOP2HB0iFVp67gPgUDrtA4KQRaLY7/M0339i2vbi4+Le//W1ubm5nZ2dlZSWZTEoO169f39jYoB9QuHv37sLCgvIDCslkkn5VYW5u7t69e4uLizs7Ozdv3pQ5HLqhSkEN+ngGdTsnfinxBdO2XVtM431ipO6hC4/aRLGC7Ez/kC/vOkLhz3IU5iedpYuiA06VkPMkIne/v2p9nTTewvs/3UFPgIhFWXWPxHgXSzO38idGRHoGhJXcr1DYBwInlUCzEqQ1MfLHAcfGxtw/HE0/pVUqlWQn96uvvqJfGJTrAemnp+WvKvT29v73R1hLpdJJJYpygwAInCgCzUpwd3d3ZmZGVrm7u/v169fyV1TJaO4EmqYtLi6WSiXpzaWlpZWVFXf/969//evu7q7MExsgAAIg0DoCzUrwzZs3k5OTsnx9fX07Ozuzs7MU6PX19S0uLio/r7+yslIoFEiCXV1dmUzm9evX7l/bn5mZefPmjcwTGyAAAiDQOgLNSnB2dnZnZ+fPf/5zb29vIpHIZDL//V2Cr7/+Wpb4xo0b79+/n52d7enpicfjf/nLX2zbdv9DS19//TWNKiYSid7e3rGxMdKozAEbIAACINA6As1KkCZ2379///r1652dnffv39M/LCdLHI/HFxYWdnd3X/OXbduzs7Pux0Li8fjk5OTu7i79m5y2ba+srLTiZwdlkbABAiAAApJAsxLUNC2ZTN64cWNmZmZxcfH69es9PT0yd9qgf3ydEvj+4+s9PT0yhxs3btQvslEyxFsQAAEQCItACBKURbly5YrcPsZGk4cf44w4BARAAATClCBoggAIgMCJIwAJnrgmQ4FBAATCJAAJhkkTeYEACJw4ApDgiWsyFBgEQCBMApBgmDSRFwiAwIkjAAmeuCZDgUEABMIkAAmGSRN5gQAInDgCkOCJazIUGARAIEwCkGCYNJEXCIDAiSMACZ64JkOBQQAEwiQACYZJE3mBAAicOAKQ4IlrMhQYBEAgTAKQYJg0kRcIgMCJIwAJnrgmQ4FBAATCJMAkGMMLBEAABE4rAUjwtLY86g0CIMAJQIK4EEAABE41AUjwVDc/Kg8CIAAJ4hoAARA41QQgwVPd/Kg8CIAAJIhrAARA4FQTgARPdfOj8iAAApAgrgEQAIFTTQASPNXNj8qDAAhAgrgGQAAETjUBSPBUNz8qDwIgAAniGgABEDjVBCDBU938qDwIgAAkiGsABEDgVBOABE9186PyIAACkCCuARAAgVNNoB0SvHjx4pDrdfHixVONHJUHARDoJAKQYCe1BsoCAiDQdgInXoKffvppMpl0BZq1zVQq1d/f32mB57lz5+Lx+Pnz59ve1jghCICAD4GISJB81+d6JRKJwcHBoaGhVCp15coVn6p/iF2ffPJJMpkcHBz87LPPPsT5cU4QAAGVQHQkWB/xffTRR/F4fGhoKJlMnjt3Tq36h3hPcSsk+CHY45wg4E8gyhKMxWKfffbZ4OBgKpWqV6Q/jxbvhQRbDBjZg8CRCXxICca9ryOXnR9AWmmkOd9Pz50719PTk0qlqLPc39//5ZdfyrPTIclk8sKFC4lEgpINDAxomnbmzBmZ7MyZM5cuXUomkzKfnp4ed7x55cqVoaGhq1ev9vX10YlkbjRsKePBL7/8sr+/X+ajlEeeERsgAAKtIPAhJVibwuBbx6uer+ZkVhcvXkylUlI3sVjs888/HxgYGBoaGhwc7OvrI/ukUqmuri46ijIc4K9UKpVIJGSa7u5uSnPmzJlr166R2pLJZF9fH40/DgwMfP7555SGJEhxaCKRSCaT165do5SULUnz0qVLKf7q7+/v6+ujSZ5GTpf1wgYIgEBYBCIrwbNnz16+fJl8F4/HKYg7e/YshWPXrl2TYd2FCxcGBwelv0iCNJIopy9IVYODg1988UUsFpNuvXDhArWEHH/s7+//+OOPY7GYlCAdQskoc7eU+/r6UqnU5cuXZYtevXo1lUpdu3ZN7sEGCIBA6whERIJKUCnfplKpeDx+9uxZIki+k56SWGn+5OrVq7FYTIaWmqbJBLFYrKenZ2hoiIJB2lY8de7cOeod0/gjSTCRSMizy8zdEiQpX716VUrZfVJsgwAItJpAyBKU9qENKn2jJ0Z8Ex+1wtJZ1J1093Dj8fgnn3zizlBGZ661NGyzv79/aGiot7fX11OUg6ZpqVSqr69PhpP1ky0kR1qRQ+eKx+PuAtRHgleuXKHRwMHBwUQioWkaBZLuo7ANAiDQOgLRkaBbSV988QV1hN3dXtlFVeQr3yYSCSnBZDL56aefurlTFziRSEjtus9IKSmiPJIEz5w5o2kaldZdEtkTd5cB2yAAAqETiKYEY7GYnHCQMx5Sgj09PQdwlMGa8lAHRXa9vb3hRoKyJOfOnbty5YqcQa7vs8uU2AABEAiRQGQlGIvFuru7aRZYTk1QNFe/dppWzNB4nwz0Ll265AZNXV0aNww+Jnhwd/j8+fNJ/nKvrTl//vzAwIB73NBdDGyDAAiESyDKEvz4449psE/OTsg98Xj8o48+IpRy5pdWC5IEledMKI2cQQ4+O6xIUD42R16WQaV7YoRmb+pNHW7DIzcQAAEiEGUJxmKxL7/8klbwUQQXi8VIMco6waGhITl6KCNBWmBIS/xoSaDsWTdaJzg4OCgHCn0nRmKxGK2dTiaTtE6QfDo0NDQwMOCe1ZHnwpUKAiDQUgIRl6Bvp5ieGCE5UsR3+fJluUJFjgleunQpkUj4PlUSi8XOnDlz+fJl+cTI4OCg7xMjSiRIFpartWmZ4YULF5QnRi5duiTL09LmR+YgAAInXoKhN6GUIOZnQ2eLDEGgAwlAgmqjQIIqEbwHgUgTgATV5oUEVSJ4DwKRJhCyBCPAChKMQCOiCiAQnAAkGJwVUoIACESQACQYwUZFlUAABIITgASDs0JKEACBCBKABCPYqKgSCIBAcAKQYHBWSAkCIBBBApBgBBsVVQIBEAhOABIMzgopQQAEIkgAEoxgo6JKIAACwQlAgsFZISUIgEAECUCCEWxUVAkEQCA4AUgwOCukBAEQiCABSDCCjYoqgQAIBCcACQZnhZQgAAIRJAAJRrBRUSUQAIHgBCDB4KyQEgRAIIIEIMEINiqqBAIgEJwAJBicFVKCAAhEkAAkGMFGRZVAAASCE4AEg7NCShAAgQgSgAQj2KioEgiAQHACkGBwVkgJAiAQQQKQYAQbFVUCARAITgASDM4KKUEABCJIABKMYKOiSiAAAsEJQILBWSElCIBABAlAghFsVFQJBEAgOAFIMDgrpAQBEIggAUgwgo2KKoEACAQnAAkGZ4WUIAACESQACUawUVElEACB4AQgweCskBIEQCCCBCDBCDYqqgQCIBCcACQYnBVSggAIRJAAJBjBRkWVQAAEghOABIOzQkoQAIEIEoAEI9ioqBIIgEBwApBgcFZICQIgEEECkGAEGxVVAgEQCE4AEgzOCilBAAQiSAASjGCjokogAALBCTAJ/gkvEAABEDjFBCDBU9z4qDoIgMCf/gQJ4ioAARA41QQgwVPd/Kg8CIAAJIhrAARA4FQT+H9Kd8JaWy7E5gAAAABJRU5ErkJggg==;" parent="1" vertex="1">
          <mxGeometry x="20" y="65.82" width="255.82" height="524.18" as="geometry" />
        </mxCell>
        <mxCell id="Up7u5XpW_qCa6S5sLstG-4" value="Version 1.2.1" style="text;html=1;points=[];align=left;verticalAlign=top;spacingTop=-4;fontSize=14;fontFamily=Verdana" parent="1" vertex="1">
          <mxGeometry x="870" y="295" width="170" height="20" as="geometry" />
        </mxCell>
        <mxCell id="Up7u5XpW_qCa6S5sLstG-5" value="Version 1.1.8" style="text;html=1;points=[];align=left;verticalAlign=top;spacingTop=-4;fontSize=14;fontFamily=Verdana" parent="1" vertex="1">
          <mxGeometry x="870" y="330" width="170" height="20" as="geometry" />
        </mxCell>
        <mxCell id="Up7u5XpW_qCa6S5sLstG-6" value="Version 1.1.7" style="text;html=1;points=[];align=left;verticalAlign=top;spacingTop=-4;fontSize=14;fontFamily=Verdana" parent="1" vertex="1">
          <mxGeometry x="870" y="365" width="170" height="20" as="geometry" />
        </mxCell>
        <mxCell id="Up7u5XpW_qCa6S5sLstG-7" value="Version 1.1.5" style="text;html=1;points=[];align=left;verticalAlign=top;spacingTop=-4;fontSize=14;fontFamily=Verdana" parent="1" vertex="1">
          <mxGeometry x="870" y="400" width="170" height="20" as="geometry" />
        </mxCell>
      </root>
    </mxGraphModel>
  </diagram>
</mxfile>
